<?xml version="1.0" encoding="utf-8"?>
<svg xmlns="http://www.w3.org/2000/svg" xmlns:xlink="http://www.w3.org/1999/xlink" width="528" height="336" viewBox="0 0 2112 1344">
<defs>
  <clipPath id="clip690">
    <rect x="0" y="0" width="2112" height="1344"/>
  </clipPath>
</defs>
<path clip-path="url(#clip690)" d="M0 1344 L2112 1344 L2112 0 L0 0  Z" fill="#ffffff" fill-rule="evenodd" fill-opacity="1"/>
<defs>
  <clipPath id="clip691">
    <rect x="422" y="0" width="1479" height="1344"/>
  </clipPath>
</defs>
<path clip-path="url(#clip690)" d="M244.988 1173.47 L2064.76 1173.47 L2064.76 120.723 L244.988 120.723  Z" fill="#ffffff" fill-rule="evenodd" fill-opacity="1"/>
<defs>
  <clipPath id="clip692">
    <rect x="244" y="120" width="1821" height="1054"/>
  </clipPath>
</defs>
<polyline clip-path="url(#clip692)" style="stroke:#000000; stroke-linecap:round; stroke-linejoin:round; stroke-width:2; stroke-opacity:0.1; fill:none" points="296.491,1173.47 296.491,120.723 "/>
<polyline clip-path="url(#clip692)" style="stroke:#000000; stroke-linecap:round; stroke-linejoin:round; stroke-width:2; stroke-opacity:0.1; fill:none" points="1154.87,1173.47 1154.87,120.723 "/>
<polyline clip-path="url(#clip692)" style="stroke:#000000; stroke-linecap:round; stroke-linejoin:round; stroke-width:2; stroke-opacity:0.1; fill:none" points="2013.25,1173.47 2013.25,120.723 "/>
<polyline clip-path="url(#clip690)" style="stroke:#000000; stroke-linecap:round; stroke-linejoin:round; stroke-width:4; stroke-opacity:1; fill:none" points="244.988,1173.47 2064.76,1173.47 "/>
<polyline clip-path="url(#clip690)" style="stroke:#000000; stroke-linecap:round; stroke-linejoin:round; stroke-width:4; stroke-opacity:1; fill:none" points="296.491,1173.47 296.491,1154.57 "/>
<polyline clip-path="url(#clip690)" style="stroke:#000000; stroke-linecap:round; stroke-linejoin:round; stroke-width:4; stroke-opacity:1; fill:none" points="1154.87,1173.47 1154.87,1154.57 "/>
<polyline clip-path="url(#clip690)" style="stroke:#000000; stroke-linecap:round; stroke-linejoin:round; stroke-width:4; stroke-opacity:1; fill:none" points="2013.25,1173.47 2013.25,1154.57 "/>
<path clip-path="url(#clip690)" d="M240.623 1200.14 L240.623 1204.7 Q237.961 1203.43 235.6 1202.8 Q233.239 1202.18 231.04 1202.18 Q227.221 1202.18 225.137 1203.66 Q223.077 1205.14 223.077 1207.87 Q223.077 1210.16 224.443 1211.34 Q225.832 1212.5 229.674 1213.22 L232.498 1213.8 Q237.73 1214.79 240.207 1217.32 Q242.707 1219.82 242.707 1224.03 Q242.707 1229.05 239.327 1231.65 Q235.97 1234.24 229.466 1234.24 Q227.012 1234.24 224.234 1233.68 Q221.48 1233.13 218.517 1232.04 L218.517 1227.22 Q221.364 1228.82 224.096 1229.63 Q226.827 1230.44 229.466 1230.44 Q233.471 1230.44 235.646 1228.87 Q237.822 1227.29 237.822 1224.38 Q237.822 1221.83 236.248 1220.4 Q234.697 1218.96 231.133 1218.24 L228.285 1217.69 Q223.054 1216.65 220.716 1214.42 Q218.378 1212.2 218.378 1208.24 Q218.378 1203.66 221.596 1201.02 Q224.836 1198.38 230.508 1198.38 Q232.938 1198.38 235.461 1198.82 Q237.984 1199.26 240.623 1200.14 Z" fill="#000000" fill-rule="nonzero" fill-opacity="1" /><path clip-path="url(#clip690)" d="M249.813 1207.64 L254.072 1207.64 L254.072 1233.57 L249.813 1233.57 L249.813 1207.64 M249.813 1197.55 L254.072 1197.55 L254.072 1202.94 L249.813 1202.94 L249.813 1197.55 Z" fill="#000000" fill-rule="nonzero" fill-opacity="1" /><path clip-path="url(#clip690)" d="M283.169 1212.62 Q284.767 1209.75 286.989 1208.38 Q289.211 1207.02 292.22 1207.02 Q296.271 1207.02 298.47 1209.86 Q300.669 1212.69 300.669 1217.92 L300.669 1233.57 L296.387 1233.57 L296.387 1218.06 Q296.387 1214.33 295.067 1212.53 Q293.748 1210.72 291.04 1210.72 Q287.729 1210.72 285.808 1212.92 Q283.887 1215.12 283.887 1218.91 L283.887 1233.57 L279.605 1233.57 L279.605 1218.06 Q279.605 1214.31 278.285 1212.53 Q276.966 1210.72 274.211 1210.72 Q270.947 1210.72 269.026 1212.94 Q267.105 1215.14 267.105 1218.91 L267.105 1233.57 L262.822 1233.57 L262.822 1207.64 L267.105 1207.64 L267.105 1211.67 Q268.563 1209.28 270.6 1208.15 Q272.637 1207.02 275.438 1207.02 Q278.262 1207.02 280.23 1208.45 Q282.22 1209.89 283.169 1212.62 Z" fill="#000000" fill-rule="nonzero" fill-opacity="1" /><path clip-path="url(#clip690)" d="M313.285 1229.68 L313.285 1243.43 L309.003 1243.43 L309.003 1207.64 L313.285 1207.64 L313.285 1211.58 Q314.627 1209.26 316.665 1208.15 Q318.725 1207.02 321.572 1207.02 Q326.294 1207.02 329.234 1210.77 Q332.197 1214.52 332.197 1220.63 Q332.197 1226.74 329.234 1230.49 Q326.294 1234.24 321.572 1234.24 Q318.725 1234.24 316.665 1233.13 Q314.627 1231.99 313.285 1229.68 M327.776 1220.63 Q327.776 1215.93 325.831 1213.27 Q323.91 1210.58 320.53 1210.58 Q317.151 1210.58 315.206 1213.27 Q313.285 1215.93 313.285 1220.63 Q313.285 1225.33 315.206 1228.01 Q317.151 1230.67 320.53 1230.67 Q323.91 1230.67 325.831 1228.01 Q327.776 1225.33 327.776 1220.63 Z" fill="#000000" fill-rule="nonzero" fill-opacity="1" /><path clip-path="url(#clip690)" d="M339.257 1197.55 L343.516 1197.55 L343.516 1233.57 L339.257 1233.57 L339.257 1197.55 Z" fill="#000000" fill-rule="nonzero" fill-opacity="1" /><path clip-path="url(#clip690)" d="M374.604 1219.54 L374.604 1221.62 L355.021 1221.62 Q355.299 1226.02 357.66 1228.34 Q360.044 1230.63 364.28 1230.63 Q366.734 1230.63 369.025 1230.03 Q371.34 1229.42 373.609 1228.22 L373.609 1232.25 Q371.317 1233.22 368.91 1233.73 Q366.502 1234.24 364.025 1234.24 Q357.822 1234.24 354.187 1230.63 Q350.576 1227.02 350.576 1220.86 Q350.576 1214.49 354.002 1210.77 Q357.451 1207.02 363.285 1207.02 Q368.516 1207.02 371.548 1210.4 Q374.604 1213.75 374.604 1219.54 M370.345 1218.29 Q370.298 1214.79 368.377 1212.71 Q366.479 1210.63 363.331 1210.63 Q359.766 1210.63 357.613 1212.64 Q355.484 1214.65 355.16 1218.31 L370.345 1218.29 Z" fill="#000000" fill-rule="nonzero" fill-opacity="1" /><path clip-path="url(#clip690)" d="M1064.31 1199.01 L1071.27 1199.01 L1080.09 1222.53 L1088.96 1199.01 L1095.93 1199.01 L1095.93 1233.57 L1091.37 1233.57 L1091.37 1203.22 L1082.45 1226.92 L1077.75 1226.92 L1068.84 1203.22 L1068.84 1233.57 L1064.31 1233.57 L1064.31 1199.01 Z" fill="#000000" fill-rule="nonzero" fill-opacity="1" /><path clip-path="url(#clip690)" d="M1104.58 1223.34 L1104.58 1207.64 L1108.84 1207.64 L1108.84 1223.17 Q1108.84 1226.85 1110.28 1228.71 Q1111.71 1230.53 1114.58 1230.53 Q1118.03 1230.53 1120.02 1228.34 Q1122.04 1226.14 1122.04 1222.34 L1122.04 1207.64 L1126.3 1207.64 L1126.3 1233.57 L1122.04 1233.57 L1122.04 1229.59 Q1120.49 1231.95 1118.43 1233.1 Q1116.39 1234.24 1113.68 1234.24 Q1109.21 1234.24 1106.9 1231.46 Q1104.58 1228.68 1104.58 1223.34 M1115.3 1207.02 L1115.3 1207.02 Z" fill="#000000" fill-rule="nonzero" fill-opacity="1" /><path clip-path="url(#clip690)" d="M1135.07 1197.55 L1139.33 1197.55 L1139.33 1233.57 L1135.07 1233.57 L1135.07 1197.55 Z" fill="#000000" fill-rule="nonzero" fill-opacity="1" /><path clip-path="url(#clip690)" d="M1152.45 1200.28 L1152.45 1207.64 L1161.23 1207.64 L1161.23 1210.95 L1152.45 1210.95 L1152.45 1225.03 Q1152.45 1228.2 1153.31 1229.1 Q1154.19 1230 1156.85 1230 L1161.23 1230 L1161.23 1233.57 L1156.85 1233.57 Q1151.92 1233.57 1150.05 1231.74 Q1148.17 1229.89 1148.17 1225.03 L1148.17 1210.95 L1145.05 1210.95 L1145.05 1207.64 L1148.17 1207.64 L1148.17 1200.28 L1152.45 1200.28 Z" fill="#000000" fill-rule="nonzero" fill-opacity="1" /><path clip-path="url(#clip690)" d="M1166.83 1207.64 L1171.09 1207.64 L1171.09 1233.57 L1166.83 1233.57 L1166.83 1207.64 M1166.83 1197.55 L1171.09 1197.55 L1171.09 1202.94 L1166.83 1202.94 L1166.83 1197.55 Z" fill="#000000" fill-rule="nonzero" fill-opacity="1" /><path clip-path="url(#clip690)" d="M1184.12 1229.68 L1184.12 1243.43 L1179.84 1243.43 L1179.84 1207.64 L1184.12 1207.64 L1184.12 1211.58 Q1185.46 1209.26 1187.5 1208.15 Q1189.56 1207.02 1192.41 1207.02 Q1197.13 1207.02 1200.07 1210.77 Q1203.03 1214.52 1203.03 1220.63 Q1203.03 1226.74 1200.07 1230.49 Q1197.13 1234.24 1192.41 1234.24 Q1189.56 1234.24 1187.5 1233.13 Q1185.46 1231.99 1184.12 1229.68 M1198.61 1220.63 Q1198.61 1215.93 1196.67 1213.27 Q1194.74 1210.58 1191.36 1210.58 Q1187.99 1210.58 1186.04 1213.27 Q1184.12 1215.93 1184.12 1220.63 Q1184.12 1225.33 1186.04 1228.01 Q1187.99 1230.67 1191.36 1230.67 Q1194.74 1230.67 1196.67 1228.01 Q1198.61 1225.33 1198.61 1220.63 Z" fill="#000000" fill-rule="nonzero" fill-opacity="1" /><path clip-path="url(#clip690)" d="M1210.09 1197.55 L1214.35 1197.55 L1214.35 1233.57 L1210.09 1233.57 L1210.09 1197.55 Z" fill="#000000" fill-rule="nonzero" fill-opacity="1" /><path clip-path="url(#clip690)" d="M1245.44 1219.54 L1245.44 1221.62 L1225.86 1221.62 Q1226.13 1226.02 1228.49 1228.34 Q1230.88 1230.63 1235.11 1230.63 Q1237.57 1230.63 1239.86 1230.03 Q1242.17 1229.42 1244.44 1228.22 L1244.44 1232.25 Q1242.15 1233.22 1239.74 1233.73 Q1237.34 1234.24 1234.86 1234.24 Q1228.66 1234.24 1225.02 1230.63 Q1221.41 1227.02 1221.41 1220.86 Q1221.41 1214.49 1224.84 1210.77 Q1228.29 1207.02 1234.12 1207.02 Q1239.35 1207.02 1242.38 1210.4 Q1245.44 1213.75 1245.44 1219.54 M1241.18 1218.29 Q1241.13 1214.79 1239.21 1212.71 Q1237.31 1210.63 1234.17 1210.63 Q1230.6 1210.63 1228.45 1212.64 Q1226.32 1214.65 1225.99 1218.31 L1241.18 1218.29 Z" fill="#000000" fill-rule="nonzero" fill-opacity="1" /><path clip-path="url(#clip690)" d="M1949.94 1199.01 L1954.62 1199.01 L1954.62 1229.63 L1971.45 1229.63 L1971.45 1233.57 L1949.94 1233.57 L1949.94 1199.01 Z" fill="#000000" fill-rule="nonzero" fill-opacity="1" /><path clip-path="url(#clip690)" d="M1987.95 1220.53 Q1982.79 1220.53 1980.8 1221.71 Q1978.81 1222.9 1978.81 1225.74 Q1978.81 1228.01 1980.29 1229.35 Q1981.79 1230.67 1984.36 1230.67 Q1987.91 1230.67 1990.04 1228.17 Q1992.19 1225.65 1992.19 1221.48 L1992.19 1220.53 L1987.95 1220.53 M1996.45 1218.78 L1996.45 1233.57 L1992.19 1233.57 L1992.19 1229.63 Q1990.73 1231.99 1988.55 1233.13 Q1986.38 1234.24 1983.23 1234.24 Q1979.25 1234.24 1976.89 1232.02 Q1974.55 1229.77 1974.55 1226.02 Q1974.55 1221.65 1977.47 1219.42 Q1980.41 1217.2 1986.22 1217.2 L1992.19 1217.2 L1992.19 1216.78 Q1992.19 1213.84 1990.24 1212.25 Q1988.32 1210.63 1984.83 1210.63 Q1982.61 1210.63 1980.5 1211.16 Q1978.39 1211.69 1976.45 1212.76 L1976.45 1208.82 Q1978.79 1207.92 1980.98 1207.48 Q1983.18 1207.02 1985.27 1207.02 Q1990.89 1207.02 1993.67 1209.93 Q1996.45 1212.85 1996.45 1218.78 Z" fill="#000000" fill-rule="nonzero" fill-opacity="1" /><path clip-path="url(#clip690)" d="M2021.75 1208.4 L2021.75 1212.43 Q2019.94 1211.51 2018 1211.04 Q2016.05 1210.58 2013.97 1210.58 Q2010.8 1210.58 2009.2 1211.55 Q2007.63 1212.53 2007.63 1214.47 Q2007.63 1215.95 2008.76 1216.81 Q2009.9 1217.64 2013.32 1218.4 L2014.78 1218.73 Q2019.32 1219.7 2021.22 1221.48 Q2023.14 1223.24 2023.14 1226.41 Q2023.14 1230.03 2020.27 1232.13 Q2017.42 1234.24 2012.42 1234.24 Q2010.34 1234.24 2008.07 1233.82 Q2005.82 1233.43 2003.32 1232.62 L2003.32 1228.22 Q2005.68 1229.45 2007.98 1230.07 Q2010.27 1230.67 2012.51 1230.67 Q2015.52 1230.67 2017.14 1229.65 Q2018.76 1228.61 2018.76 1226.74 Q2018.76 1225 2017.58 1224.08 Q2016.42 1223.15 2012.47 1222.29 L2010.98 1221.95 Q2007.03 1221.11 2005.27 1219.4 Q2003.51 1217.66 2003.51 1214.65 Q2003.51 1211 2006.1 1209.01 Q2008.69 1207.02 2013.46 1207.02 Q2015.82 1207.02 2017.91 1207.36 Q2019.99 1207.71 2021.75 1208.4 Z" fill="#000000" fill-rule="nonzero" fill-opacity="1" /><path clip-path="url(#clip690)" d="M2046.45 1208.4 L2046.45 1212.43 Q2044.64 1211.51 2042.7 1211.04 Q2040.75 1210.58 2038.67 1210.58 Q2035.5 1210.58 2033.9 1211.55 Q2032.33 1212.53 2032.33 1214.47 Q2032.33 1215.95 2033.46 1216.81 Q2034.6 1217.64 2038.02 1218.4 L2039.48 1218.73 Q2044.02 1219.7 2045.91 1221.48 Q2047.84 1223.24 2047.84 1226.41 Q2047.84 1230.03 2044.97 1232.13 Q2042.12 1234.24 2037.12 1234.24 Q2035.04 1234.24 2032.77 1233.82 Q2030.52 1233.43 2028.02 1232.62 L2028.02 1228.22 Q2030.38 1229.45 2032.67 1230.07 Q2034.97 1230.67 2037.21 1230.67 Q2040.22 1230.67 2041.84 1229.65 Q2043.46 1228.61 2043.46 1226.74 Q2043.46 1225 2042.28 1224.08 Q2041.12 1223.15 2037.16 1222.29 L2035.68 1221.95 Q2031.73 1221.11 2029.97 1219.4 Q2028.21 1217.66 2028.21 1214.65 Q2028.21 1211 2030.8 1209.01 Q2033.39 1207.02 2038.16 1207.02 Q2040.52 1207.02 2042.6 1207.36 Q2044.69 1207.71 2046.45 1208.4 Z" fill="#000000" fill-rule="nonzero" fill-opacity="1" /><path clip-path="url(#clip690)" d="M2064.66 1210.63 Q2061.24 1210.63 2059.25 1213.31 Q2057.26 1215.97 2057.26 1220.63 Q2057.26 1225.28 2059.23 1227.96 Q2061.22 1230.63 2064.66 1230.63 Q2068.07 1230.63 2070.06 1227.94 Q2072.05 1225.26 2072.05 1220.63 Q2072.05 1216.02 2070.06 1213.34 Q2068.07 1210.63 2064.66 1210.63 M2064.66 1207.02 Q2070.22 1207.02 2073.39 1210.63 Q2076.56 1214.24 2076.56 1220.63 Q2076.56 1226.99 2073.39 1230.63 Q2070.22 1234.24 2064.66 1234.24 Q2059.09 1234.24 2055.91 1230.63 Q2052.77 1226.99 2052.77 1220.63 Q2052.77 1214.24 2055.91 1210.63 Q2059.09 1207.02 2064.66 1207.02 Z" fill="#000000" fill-rule="nonzero" fill-opacity="1" /><path clip-path="url(#clip690)" d="M1063.27 1266.49 L1072.85 1266.49 L1084.98 1298.83 L1097.17 1266.49 L1106.75 1266.49 L1106.75 1314.01 L1100.48 1314.01 L1100.48 1272.29 L1088.22 1304.88 L1081.76 1304.88 L1069.51 1272.29 L1069.51 1314.01 L1063.27 1314.01 L1063.27 1266.49 Z" fill="#000000" fill-rule="nonzero" fill-opacity="1" /><path clip-path="url(#clip690)" d="M1133.07 1282.47 Q1128.36 1282.47 1125.62 1286.16 Q1122.88 1289.83 1122.88 1296.22 Q1122.88 1302.62 1125.59 1306.31 Q1128.33 1309.97 1133.07 1309.97 Q1137.75 1309.97 1140.49 1306.28 Q1143.22 1302.59 1143.22 1296.22 Q1143.22 1289.89 1140.49 1286.2 Q1137.75 1282.47 1133.07 1282.47 M1133.07 1277.51 Q1140.71 1277.51 1145.07 1282.47 Q1149.43 1287.44 1149.43 1296.22 Q1149.43 1304.98 1145.07 1309.97 Q1140.71 1314.94 1133.07 1314.94 Q1125.4 1314.94 1121.04 1309.97 Q1116.71 1304.98 1116.71 1296.22 Q1116.71 1287.44 1121.04 1282.47 Q1125.4 1277.51 1133.07 1277.51 Z" fill="#000000" fill-rule="nonzero" fill-opacity="1" /><path clip-path="url(#clip690)" d="M1182.59 1283.78 L1182.59 1264.49 L1188.45 1264.49 L1188.45 1314.01 L1182.59 1314.01 L1182.59 1308.67 Q1180.75 1311.85 1177.92 1313.41 Q1175.11 1314.94 1171.17 1314.94 Q1164.71 1314.94 1160.63 1309.78 Q1156.59 1304.63 1156.59 1296.22 Q1156.59 1287.82 1160.63 1282.66 Q1164.71 1277.51 1171.17 1277.51 Q1175.11 1277.51 1177.92 1279.07 Q1180.75 1280.59 1182.59 1283.78 M1162.64 1296.22 Q1162.64 1302.68 1165.28 1306.38 Q1167.95 1310.04 1172.6 1310.04 Q1177.25 1310.04 1179.92 1306.38 Q1182.59 1302.68 1182.59 1296.22 Q1182.59 1289.76 1179.92 1286.1 Q1177.25 1282.41 1172.6 1282.41 Q1167.95 1282.41 1165.28 1286.1 Q1162.64 1289.76 1162.64 1296.22 Z" fill="#000000" fill-rule="nonzero" fill-opacity="1" /><path clip-path="url(#clip690)" d="M1231.01 1294.73 L1231.01 1297.59 L1204.08 1297.59 Q1204.46 1303.64 1207.71 1306.82 Q1210.99 1309.97 1216.81 1309.97 Q1220.18 1309.97 1223.34 1309.14 Q1226.52 1308.32 1229.64 1306.66 L1229.64 1312.2 Q1226.49 1313.54 1223.18 1314.24 Q1219.87 1314.94 1216.46 1314.94 Q1207.93 1314.94 1202.93 1309.97 Q1197.97 1305.01 1197.97 1296.54 Q1197.97 1287.79 1202.68 1282.66 Q1207.42 1277.51 1215.44 1277.51 Q1222.63 1277.51 1226.8 1282.15 Q1231.01 1286.77 1231.01 1294.73 M1225.15 1293.01 Q1225.09 1288.2 1222.44 1285.34 Q1219.83 1282.47 1215.51 1282.47 Q1210.6 1282.47 1207.64 1285.24 Q1204.72 1288.01 1204.27 1293.04 L1225.15 1293.01 Z" fill="#000000" fill-rule="nonzero" fill-opacity="1" /><path clip-path="url(#clip690)" d="M1240.62 1264.49 L1246.47 1264.49 L1246.47 1314.01 L1240.62 1314.01 L1240.62 1264.49 Z" fill="#000000" fill-rule="nonzero" fill-opacity="1" /><polyline clip-path="url(#clip692)" style="stroke:#000000; stroke-linecap:round; stroke-linejoin:round; stroke-width:2; stroke-opacity:0.1; fill:none" points="244.988,1143.13 2064.76,1143.13 "/>
<polyline clip-path="url(#clip692)" style="stroke:#000000; stroke-linecap:round; stroke-linejoin:round; stroke-width:2; stroke-opacity:0.1; fill:none" points="244.988,918.63 2064.76,918.63 "/>
<polyline clip-path="url(#clip692)" style="stroke:#000000; stroke-linecap:round; stroke-linejoin:round; stroke-width:2; stroke-opacity:0.1; fill:none" points="244.988,694.13 2064.76,694.13 "/>
<polyline clip-path="url(#clip692)" style="stroke:#000000; stroke-linecap:round; stroke-linejoin:round; stroke-width:2; stroke-opacity:0.1; fill:none" points="244.988,469.63 2064.76,469.63 "/>
<polyline clip-path="url(#clip692)" style="stroke:#000000; stroke-linecap:round; stroke-linejoin:round; stroke-width:2; stroke-opacity:0.1; fill:none" points="244.988,245.13 2064.76,245.13 "/>
<polyline clip-path="url(#clip690)" style="stroke:#000000; stroke-linecap:round; stroke-linejoin:round; stroke-width:4; stroke-opacity:1; fill:none" points="244.988,1173.47 244.988,120.723 "/>
<polyline clip-path="url(#clip690)" style="stroke:#000000; stroke-linecap:round; stroke-linejoin:round; stroke-width:4; stroke-opacity:1; fill:none" points="244.988,1143.13 263.886,1143.13 "/>
<polyline clip-path="url(#clip690)" style="stroke:#000000; stroke-linecap:round; stroke-linejoin:round; stroke-width:4; stroke-opacity:1; fill:none" points="244.988,918.63 263.886,918.63 "/>
<polyline clip-path="url(#clip690)" style="stroke:#000000; stroke-linecap:round; stroke-linejoin:round; stroke-width:4; stroke-opacity:1; fill:none" points="244.988,694.13 263.886,694.13 "/>
<polyline clip-path="url(#clip690)" style="stroke:#000000; stroke-linecap:round; stroke-linejoin:round; stroke-width:4; stroke-opacity:1; fill:none" points="244.988,469.63 263.886,469.63 "/>
<polyline clip-path="url(#clip690)" style="stroke:#000000; stroke-linecap:round; stroke-linejoin:round; stroke-width:4; stroke-opacity:1; fill:none" points="244.988,245.13 263.886,245.13 "/>
<path clip-path="url(#clip690)" d="M127.568 1128.93 Q123.957 1128.93 122.128 1132.49 Q120.323 1136.04 120.323 1143.17 Q120.323 1150.27 122.128 1153.84 Q123.957 1157.38 127.568 1157.38 Q131.202 1157.38 133.008 1153.84 Q134.836 1150.27 134.836 1143.17 Q134.836 1136.04 133.008 1132.49 Q131.202 1128.93 127.568 1128.93 M127.568 1125.23 Q133.378 1125.23 136.434 1129.83 Q139.512 1134.42 139.512 1143.17 Q139.512 1151.89 136.434 1156.5 Q133.378 1161.08 127.568 1161.08 Q121.758 1161.08 118.679 1156.5 Q115.623 1151.89 115.623 1143.17 Q115.623 1134.42 118.679 1129.83 Q121.758 1125.23 127.568 1125.23 Z" fill="#000000" fill-rule="nonzero" fill-opacity="1" /><path clip-path="url(#clip690)" d="M147.73 1154.53 L152.614 1154.53 L152.614 1160.41 L147.73 1160.41 L147.73 1154.53 Z" fill="#000000" fill-rule="nonzero" fill-opacity="1" /><path clip-path="url(#clip690)" d="M166.827 1156.48 L183.146 1156.48 L183.146 1160.41 L161.202 1160.41 L161.202 1156.48 Q163.864 1153.72 168.447 1149.09 Q173.054 1144.44 174.234 1143.1 Q176.48 1140.57 177.359 1138.84 Q178.262 1137.08 178.262 1135.39 Q178.262 1132.63 176.318 1130.9 Q174.396 1129.16 171.294 1129.16 Q169.095 1129.16 166.642 1129.92 Q164.211 1130.69 161.433 1132.24 L161.433 1127.52 Q164.257 1126.38 166.711 1125.8 Q169.165 1125.23 171.202 1125.23 Q176.572 1125.23 179.767 1127.91 Q182.961 1130.6 182.961 1135.09 Q182.961 1137.22 182.151 1139.14 Q181.364 1141.04 179.257 1143.63 Q178.679 1144.3 175.577 1147.52 Q172.475 1150.71 166.827 1156.48 Z" fill="#000000" fill-rule="nonzero" fill-opacity="1" /><path clip-path="url(#clip690)" d="M196.989 1156.48 L213.308 1156.48 L213.308 1160.41 L191.364 1160.41 L191.364 1156.48 Q194.026 1153.72 198.609 1149.09 Q203.216 1144.44 204.396 1143.1 Q206.642 1140.57 207.521 1138.84 Q208.424 1137.08 208.424 1135.39 Q208.424 1132.63 206.479 1130.9 Q204.558 1129.16 201.456 1129.16 Q199.257 1129.16 196.804 1129.92 Q194.373 1130.69 191.595 1132.24 L191.595 1127.52 Q194.419 1126.38 196.873 1125.8 Q199.327 1125.23 201.364 1125.23 Q206.734 1125.23 209.929 1127.91 Q213.123 1130.6 213.123 1135.09 Q213.123 1137.22 212.313 1139.14 Q211.526 1141.04 209.419 1143.63 Q208.841 1144.3 205.739 1147.52 Q202.637 1150.71 196.989 1156.48 Z" fill="#000000" fill-rule="nonzero" fill-opacity="1" /><path clip-path="url(#clip690)" d="M125.485 904.429 Q121.873 904.429 120.045 907.994 Q118.239 911.535 118.239 918.665 Q118.239 925.771 120.045 929.336 Q121.873 932.878 125.485 932.878 Q129.119 932.878 130.924 929.336 Q132.753 925.771 132.753 918.665 Q132.753 911.535 130.924 907.994 Q129.119 904.429 125.485 904.429 M125.485 900.725 Q131.295 900.725 134.35 905.332 Q137.429 909.915 137.429 918.665 Q137.429 927.392 134.35 931.998 Q131.295 936.582 125.485 936.582 Q119.674 936.582 116.596 931.998 Q113.54 927.392 113.54 918.665 Q113.54 909.915 116.596 905.332 Q119.674 900.725 125.485 900.725 Z" fill="#000000" fill-rule="nonzero" fill-opacity="1" /><path clip-path="url(#clip690)" d="M145.646 930.031 L150.531 930.031 L150.531 935.91 L145.646 935.91 L145.646 930.031 Z" fill="#000000" fill-rule="nonzero" fill-opacity="1" /><path clip-path="url(#clip690)" d="M164.744 931.975 L181.063 931.975 L181.063 935.91 L159.119 935.91 L159.119 931.975 Q161.781 929.221 166.364 924.591 Q170.97 919.938 172.151 918.596 Q174.396 916.072 175.276 914.336 Q176.179 912.577 176.179 910.887 Q176.179 908.133 174.234 906.397 Q172.313 904.661 169.211 904.661 Q167.012 904.661 164.558 905.424 Q162.128 906.188 159.35 907.739 L159.35 903.017 Q162.174 901.883 164.628 901.304 Q167.082 900.725 169.119 900.725 Q174.489 900.725 177.683 903.411 Q180.878 906.096 180.878 910.586 Q180.878 912.716 180.068 914.637 Q179.281 916.535 177.174 919.128 Q176.595 919.799 173.494 923.017 Q170.392 926.211 164.744 931.975 Z" fill="#000000" fill-rule="nonzero" fill-opacity="1" /><path clip-path="url(#clip690)" d="M203.725 905.424 L191.919 923.873 L203.725 923.873 L203.725 905.424 M202.498 901.35 L208.378 901.35 L208.378 923.873 L213.308 923.873 L213.308 927.762 L208.378 927.762 L208.378 935.91 L203.725 935.91 L203.725 927.762 L188.123 927.762 L188.123 923.248 L202.498 901.35 Z" fill="#000000" fill-rule="nonzero" fill-opacity="1" /><path clip-path="url(#clip690)" d="M125.809 679.929 Q122.198 679.929 120.369 683.494 Q118.563 687.035 118.563 694.165 Q118.563 701.271 120.369 704.836 Q122.198 708.378 125.809 708.378 Q129.443 708.378 131.248 704.836 Q133.077 701.271 133.077 694.165 Q133.077 687.035 131.248 683.494 Q129.443 679.929 125.809 679.929 M125.809 676.225 Q131.619 676.225 134.674 680.832 Q137.753 685.415 137.753 694.165 Q137.753 702.892 134.674 707.498 Q131.619 712.081 125.809 712.081 Q119.998 712.081 116.92 707.498 Q113.864 702.892 113.864 694.165 Q113.864 685.415 116.92 680.832 Q119.998 676.225 125.809 676.225 Z" fill="#000000" fill-rule="nonzero" fill-opacity="1" /><path clip-path="url(#clip690)" d="M145.971 705.531 L150.855 705.531 L150.855 711.41 L145.971 711.41 L145.971 705.531 Z" fill="#000000" fill-rule="nonzero" fill-opacity="1" /><path clip-path="url(#clip690)" d="M165.068 707.475 L181.387 707.475 L181.387 711.41 L159.443 711.41 L159.443 707.475 Q162.105 704.72 166.688 700.091 Q171.294 695.438 172.475 694.095 Q174.72 691.572 175.6 689.836 Q176.503 688.077 176.503 686.387 Q176.503 683.632 174.558 681.896 Q172.637 680.16 169.535 680.16 Q167.336 680.16 164.882 680.924 Q162.452 681.688 159.674 683.239 L159.674 678.517 Q162.498 677.383 164.952 676.804 Q167.406 676.225 169.443 676.225 Q174.813 676.225 178.007 678.91 Q181.202 681.595 181.202 686.086 Q181.202 688.216 180.392 690.137 Q179.605 692.035 177.498 694.628 Q176.919 695.299 173.818 698.517 Q170.716 701.711 165.068 707.475 Z" fill="#000000" fill-rule="nonzero" fill-opacity="1" /><path clip-path="url(#clip690)" d="M201.78 692.267 Q198.632 692.267 196.78 694.419 Q194.952 696.572 194.952 700.322 Q194.952 704.049 196.78 706.225 Q198.632 708.378 201.78 708.378 Q204.929 708.378 206.757 706.225 Q208.609 704.049 208.609 700.322 Q208.609 696.572 206.757 694.419 Q204.929 692.267 201.78 692.267 M211.063 677.614 L211.063 681.873 Q209.304 681.04 207.498 680.6 Q205.716 680.16 203.956 680.16 Q199.327 680.16 196.873 683.285 Q194.443 686.41 194.095 692.73 Q195.461 690.716 197.521 689.651 Q199.581 688.563 202.058 688.563 Q207.267 688.563 210.276 691.734 Q213.308 694.882 213.308 700.322 Q213.308 705.646 210.16 708.864 Q207.012 712.081 201.78 712.081 Q195.785 712.081 192.614 707.498 Q189.443 702.892 189.443 694.165 Q189.443 685.97 193.331 681.109 Q197.22 676.225 203.771 676.225 Q205.53 676.225 207.313 676.572 Q209.118 676.92 211.063 677.614 Z" fill="#000000" fill-rule="nonzero" fill-opacity="1" /><path clip-path="url(#clip690)" d="M126.063 455.429 Q122.452 455.429 120.623 458.993 Q118.818 462.535 118.818 469.665 Q118.818 476.771 120.623 480.336 Q122.452 483.878 126.063 483.878 Q129.697 483.878 131.503 480.336 Q133.332 476.771 133.332 469.665 Q133.332 462.535 131.503 458.993 Q129.697 455.429 126.063 455.429 M126.063 451.725 Q131.873 451.725 134.929 456.331 Q138.008 460.915 138.008 469.665 Q138.008 478.391 134.929 482.998 Q131.873 487.581 126.063 487.581 Q120.253 487.581 117.174 482.998 Q114.119 478.391 114.119 469.665 Q114.119 460.915 117.174 456.331 Q120.253 451.725 126.063 451.725 Z" fill="#000000" fill-rule="nonzero" fill-opacity="1" /><path clip-path="url(#clip690)" d="M146.225 481.03 L151.109 481.03 L151.109 486.91 L146.225 486.91 L146.225 481.03 Z" fill="#000000" fill-rule="nonzero" fill-opacity="1" /><path clip-path="url(#clip690)" d="M165.322 482.975 L181.642 482.975 L181.642 486.91 L159.697 486.91 L159.697 482.975 Q162.359 480.22 166.943 475.591 Q171.549 470.938 172.73 469.595 Q174.975 467.072 175.855 465.336 Q176.757 463.577 176.757 461.887 Q176.757 459.132 174.813 457.396 Q172.892 455.66 169.79 455.66 Q167.591 455.66 165.137 456.424 Q162.707 457.188 159.929 458.739 L159.929 454.017 Q162.753 452.882 165.207 452.304 Q167.66 451.725 169.697 451.725 Q175.068 451.725 178.262 454.41 Q181.456 457.095 181.456 461.586 Q181.456 463.716 180.646 465.637 Q179.859 467.535 177.753 470.128 Q177.174 470.799 174.072 474.016 Q170.97 477.211 165.322 482.975 Z" fill="#000000" fill-rule="nonzero" fill-opacity="1" /><path clip-path="url(#clip690)" d="M201.456 470.498 Q198.123 470.498 196.202 472.28 Q194.304 474.063 194.304 477.188 Q194.304 480.313 196.202 482.095 Q198.123 483.878 201.456 483.878 Q204.79 483.878 206.711 482.095 Q208.632 480.29 208.632 477.188 Q208.632 474.063 206.711 472.28 Q204.813 470.498 201.456 470.498 M196.78 468.507 Q193.771 467.766 192.081 465.706 Q190.415 463.646 190.415 460.683 Q190.415 456.54 193.355 454.132 Q196.317 451.725 201.456 451.725 Q206.618 451.725 209.558 454.132 Q212.498 456.54 212.498 460.683 Q212.498 463.646 210.808 465.706 Q209.141 467.766 206.155 468.507 Q209.535 469.294 211.41 471.586 Q213.308 473.878 213.308 477.188 Q213.308 482.211 210.229 484.896 Q207.174 487.581 201.456 487.581 Q195.739 487.581 192.66 484.896 Q189.605 482.211 189.605 477.188 Q189.605 473.878 191.503 471.586 Q193.401 469.294 196.78 468.507 M195.067 461.123 Q195.067 463.808 196.734 465.313 Q198.424 466.817 201.456 466.817 Q204.466 466.817 206.155 465.313 Q207.868 463.808 207.868 461.123 Q207.868 458.438 206.155 456.933 Q204.466 455.429 201.456 455.429 Q198.424 455.429 196.734 456.933 Q195.067 458.438 195.067 461.123 Z" fill="#000000" fill-rule="nonzero" fill-opacity="1" /><path clip-path="url(#clip690)" d="M125.971 230.928 Q122.36 230.928 120.531 234.493 Q118.725 238.035 118.725 245.164 Q118.725 252.271 120.531 255.836 Q122.36 259.377 125.971 259.377 Q129.605 259.377 131.41 255.836 Q133.239 252.271 133.239 245.164 Q133.239 238.035 131.41 234.493 Q129.605 230.928 125.971 230.928 M125.971 227.225 Q131.781 227.225 134.836 231.831 Q137.915 236.414 137.915 245.164 Q137.915 253.891 134.836 258.498 Q131.781 263.081 125.971 263.081 Q120.16 263.081 117.082 258.498 Q114.026 253.891 114.026 245.164 Q114.026 236.414 117.082 231.831 Q120.16 227.225 125.971 227.225 Z" fill="#000000" fill-rule="nonzero" fill-opacity="1" /><path clip-path="url(#clip690)" d="M146.133 256.53 L151.017 256.53 L151.017 262.41 L146.133 262.41 L146.133 256.53 Z" fill="#000000" fill-rule="nonzero" fill-opacity="1" /><path clip-path="url(#clip690)" d="M175.369 243.776 Q178.725 244.493 180.6 246.762 Q182.498 249.03 182.498 252.363 Q182.498 257.479 178.98 260.28 Q175.461 263.081 168.98 263.081 Q166.804 263.081 164.489 262.641 Q162.197 262.225 159.744 261.368 L159.744 256.854 Q161.688 257.988 164.003 258.567 Q166.318 259.146 168.841 259.146 Q173.239 259.146 175.531 257.41 Q177.845 255.674 177.845 252.363 Q177.845 249.308 175.693 247.595 Q173.563 245.859 169.744 245.859 L165.716 245.859 L165.716 242.016 L169.929 242.016 Q173.378 242.016 175.206 240.651 Q177.035 239.262 177.035 236.669 Q177.035 234.007 175.137 232.595 Q173.262 231.16 169.744 231.16 Q167.822 231.16 165.623 231.577 Q163.424 231.993 160.785 232.873 L160.785 228.706 Q163.447 227.965 165.762 227.595 Q168.1 227.225 170.16 227.225 Q175.484 227.225 178.586 229.655 Q181.688 232.063 181.688 236.183 Q181.688 239.053 180.044 241.044 Q178.401 243.012 175.369 243.776 Z" fill="#000000" fill-rule="nonzero" fill-opacity="1" /><path clip-path="url(#clip690)" d="M201.364 230.928 Q197.753 230.928 195.924 234.493 Q194.118 238.035 194.118 245.164 Q194.118 252.271 195.924 255.836 Q197.753 259.377 201.364 259.377 Q204.998 259.377 206.804 255.836 Q208.632 252.271 208.632 245.164 Q208.632 238.035 206.804 234.493 Q204.998 230.928 201.364 230.928 M201.364 227.225 Q207.174 227.225 210.229 231.831 Q213.308 236.414 213.308 245.164 Q213.308 253.891 210.229 258.498 Q207.174 263.081 201.364 263.081 Q195.554 263.081 192.475 258.498 Q189.419 253.891 189.419 245.164 Q189.419 236.414 192.475 231.831 Q195.554 227.225 201.364 227.225 Z" fill="#000000" fill-rule="nonzero" fill-opacity="1" /><path clip-path="url(#clip690)" d="M23.7444 781.381 L30.5239 781.381 Q27.5002 784.628 26.0043 788.32 Q24.5083 791.98 24.5083 796.118 Q24.5083 804.266 29.5054 808.595 Q34.4707 812.924 43.8919 812.924 Q53.2813 812.924 58.2784 808.595 Q63.2436 804.266 63.2436 796.118 Q63.2436 791.98 61.7477 788.32 Q60.2518 784.628 57.2281 781.381 L63.9439 781.381 Q66.2355 784.755 67.3814 788.543 Q68.5272 792.299 68.5272 796.5 Q68.5272 807.29 61.9387 813.496 Q55.3183 819.703 43.8919 819.703 Q32.4336 819.703 25.8451 813.496 Q19.2248 807.29 19.2248 796.5 Q19.2248 792.235 20.3706 788.479 Q21.4846 784.692 23.7444 781.381 Z" fill="#000000" fill-rule="nonzero" fill-opacity="1" /><path clip-path="url(#clip690)" d="M36.0621 757.892 Q36.0621 762.603 39.7542 765.34 Q43.4145 768.077 49.812 768.077 Q56.2095 768.077 59.9017 765.372 Q63.5619 762.634 63.5619 757.892 Q63.5619 753.213 59.8698 750.476 Q56.1777 747.739 49.812 747.739 Q43.4781 747.739 39.786 750.476 Q36.0621 753.213 36.0621 757.892 M31.0968 757.892 Q31.0968 750.253 36.0621 745.893 Q41.0273 741.532 49.812 741.532 Q58.5649 741.532 63.5619 745.893 Q68.5272 750.253 68.5272 757.892 Q68.5272 765.563 63.5619 769.923 Q58.5649 774.252 49.812 774.252 Q41.0273 774.252 36.0621 769.923 Q31.0968 765.563 31.0968 757.892 Z" fill="#000000" fill-rule="nonzero" fill-opacity="1" /><path clip-path="url(#clip690)" d="M48.3161 701.333 L51.1806 701.333 L51.1806 728.26 Q57.2281 727.878 60.4109 724.631 Q63.5619 721.353 63.5619 715.528 Q63.5619 712.154 62.7344 709.003 Q61.9069 705.821 60.2518 702.701 L65.7899 702.701 Q67.1267 705.852 67.827 709.163 Q68.5272 712.473 68.5272 715.878 Q68.5272 724.408 63.5619 729.405 Q58.5967 734.371 50.1303 734.371 Q41.3774 734.371 36.2531 729.66 Q31.0968 724.918 31.0968 716.897 Q31.0968 709.704 35.7438 705.534 Q40.3589 701.333 48.3161 701.333 M46.5973 707.189 Q41.7912 707.253 38.9266 709.895 Q36.0621 712.505 36.0621 716.833 Q36.0621 721.735 38.8312 724.695 Q41.6002 727.623 46.6292 728.069 L46.5973 707.189 Z" fill="#000000" fill-rule="nonzero" fill-opacity="1" /><path clip-path="url(#clip690)" d="M18.079 673.674 L22.9487 673.674 L22.9487 679.276 Q22.9487 682.427 24.2219 683.668 Q25.495 684.877 28.8052 684.877 L31.9562 684.877 L31.9562 675.233 L36.5077 675.233 L36.5077 684.877 L67.6042 684.877 L67.6042 690.766 L36.5077 690.766 L36.5077 696.367 L31.9562 696.367 L31.9562 690.766 L29.4736 690.766 Q23.5216 690.766 20.8162 687.997 Q18.079 685.227 18.079 679.212 L18.079 673.674 Z" fill="#000000" fill-rule="nonzero" fill-opacity="1" /><path clip-path="url(#clip690)" d="M18.079 650.725 L22.9487 650.725 L22.9487 656.327 Q22.9487 659.478 24.2219 660.72 Q25.495 661.929 28.8052 661.929 L31.9562 661.929 L31.9562 652.285 L36.5077 652.285 L36.5077 661.929 L67.6042 661.929 L67.6042 667.817 L36.5077 667.817 L36.5077 673.419 L31.9562 673.419 L31.9562 667.817 L29.4736 667.817 Q23.5216 667.817 20.8162 665.048 Q18.079 662.279 18.079 656.264 L18.079 650.725 Z" fill="#000000" fill-rule="nonzero" fill-opacity="1" /><path clip-path="url(#clip690)" d="M31.9562 645.824 L31.9562 639.967 L67.6042 639.967 L67.6042 645.824 L31.9562 645.824 M18.079 645.824 L18.079 639.967 L25.495 639.967 L25.495 645.824 L18.079 645.824 Z" fill="#000000" fill-rule="nonzero" fill-opacity="1" /><path clip-path="url(#clip690)" d="M33.3248 602.06 L38.7993 602.06 Q37.4307 604.542 36.7623 607.057 Q36.0621 609.539 36.0621 612.086 Q36.0621 617.783 39.6905 620.934 Q43.2872 624.085 49.812 624.085 Q56.3369 624.085 59.9653 620.934 Q63.5619 617.783 63.5619 612.086 Q63.5619 609.539 62.8935 607.057 Q62.1933 604.542 60.8247 602.06 L66.2355 602.06 Q67.3814 604.51 67.9543 607.152 Q68.5272 609.762 68.5272 612.722 Q68.5272 620.775 63.4664 625.517 Q58.4057 630.26 49.812 630.26 Q41.091 630.26 36.0939 625.485 Q31.0968 620.679 31.0968 612.34 Q31.0968 609.635 31.6697 607.057 Q32.2108 604.478 33.3248 602.06 Z" fill="#000000" fill-rule="nonzero" fill-opacity="1" /><path clip-path="url(#clip690)" d="M31.9562 591.874 L31.9562 586.018 L67.6042 586.018 L67.6042 591.874 L31.9562 591.874 M18.079 591.874 L18.079 586.018 L25.495 586.018 L25.495 591.874 L18.079 591.874 Z" fill="#000000" fill-rule="nonzero" fill-opacity="1" /><path clip-path="url(#clip690)" d="M48.3161 543.272 L51.1806 543.272 L51.1806 570.199 Q57.2281 569.817 60.4109 566.571 Q63.5619 563.292 63.5619 557.468 Q63.5619 554.094 62.7344 550.943 Q61.9069 547.76 60.2518 544.641 L65.7899 544.641 Q67.1267 547.792 67.827 551.102 Q68.5272 554.412 68.5272 557.818 Q68.5272 566.348 63.5619 571.345 Q58.5967 576.31 50.1303 576.31 Q41.3774 576.31 36.2531 571.6 Q31.0968 566.857 31.0968 558.836 Q31.0968 551.643 35.7438 547.474 Q40.3589 543.272 48.3161 543.272 M46.5973 549.129 Q41.7912 549.192 38.9266 551.834 Q36.0621 554.444 36.0621 558.773 Q36.0621 563.674 38.8312 566.634 Q41.6002 569.563 46.6292 570.008 L46.5973 549.129 Z" fill="#000000" fill-rule="nonzero" fill-opacity="1" /><path clip-path="url(#clip690)" d="M46.0881 504.028 L67.6042 504.028 L67.6042 509.884 L46.279 509.884 Q41.2183 509.884 38.7038 511.857 Q36.1894 513.831 36.1894 517.778 Q36.1894 522.52 39.2131 525.257 Q42.2368 527.995 47.4567 527.995 L67.6042 527.995 L67.6042 533.883 L31.9562 533.883 L31.9562 527.995 L37.4944 527.995 Q34.2797 525.894 32.6883 523.061 Q31.0968 520.197 31.0968 516.473 Q31.0968 510.33 34.9163 507.179 Q38.7038 504.028 46.0881 504.028 Z" fill="#000000" fill-rule="nonzero" fill-opacity="1" /><path clip-path="url(#clip690)" d="M21.8347 486.554 L31.9562 486.554 L31.9562 474.491 L36.5077 474.491 L36.5077 486.554 L55.8594 486.554 Q60.2199 486.554 61.4613 485.376 Q62.7026 484.167 62.7026 480.506 L62.7026 474.491 L67.6042 474.491 L67.6042 480.506 Q67.6042 487.286 65.0897 489.864 Q62.5434 492.442 55.8594 492.442 L36.5077 492.442 L36.5077 496.739 L31.9562 496.739 L31.9562 492.442 L21.8347 492.442 L21.8347 486.554 Z" fill="#000000" fill-rule="nonzero" fill-opacity="1" /><path clip-path="url(#clip690)" d="M790.919 72.576 L767.828 12.096 L776.376 12.096 L795.537 63.0159 L814.738 12.096 L823.245 12.096 L800.195 72.576 L790.919 72.576 Z" fill="#000000" fill-rule="nonzero" fill-opacity="1" /><path clip-path="url(#clip690)" d="M845.93 49.7694 Q836.896 49.7694 833.413 51.8354 Q829.929 53.9013 829.929 58.8839 Q829.929 62.8538 832.521 65.2034 Q835.154 67.5124 839.651 67.5124 Q845.849 67.5124 849.576 63.1374 Q853.343 58.7219 853.343 51.4303 L853.343 49.7694 L845.93 49.7694 M860.797 46.6907 L860.797 72.576 L853.343 72.576 L853.343 65.6895 Q850.791 69.8214 846.983 71.8063 Q843.175 73.7508 837.666 73.7508 Q830.698 73.7508 826.566 69.8619 Q822.475 65.9325 822.475 59.3701 Q822.475 51.7138 827.579 47.825 Q832.724 43.9361 842.892 43.9361 L853.343 43.9361 L853.343 43.2069 Q853.343 38.0623 849.94 35.2672 Q846.578 32.4315 840.461 32.4315 Q836.572 32.4315 832.886 33.3632 Q829.2 34.295 825.797 36.1584 L825.797 29.2718 Q829.888 27.692 833.737 26.9223 Q837.585 26.1121 841.231 26.1121 Q851.074 26.1121 855.936 31.2163 Q860.797 36.3204 860.797 46.6907 Z" fill="#000000" fill-rule="nonzero" fill-opacity="1" /><path clip-path="url(#clip690)" d="M876.15 9.54393 L883.603 9.54393 L883.603 72.576 L876.15 72.576 L876.15 9.54393 Z" fill="#000000" fill-rule="nonzero" fill-opacity="1" /><path clip-path="url(#clip690)" d="M898.43 54.671 L898.43 27.2059 L905.883 27.2059 L905.883 54.3874 Q905.883 60.8284 908.395 64.0691 Q910.906 67.2693 915.929 67.2693 Q921.965 67.2693 925.449 63.421 Q928.973 59.5726 928.973 52.9291 L928.973 27.2059 L936.427 27.2059 L936.427 72.576 L928.973 72.576 L928.973 65.6084 Q926.259 69.7404 922.654 71.7658 Q919.089 73.7508 914.35 73.7508 Q906.531 73.7508 902.48 68.8897 Q898.43 64.0286 898.43 54.671 M917.185 26.1121 L917.185 26.1121 Z" fill="#000000" fill-rule="nonzero" fill-opacity="1" /><path clip-path="url(#clip690)" d="M990.588 48.0275 L990.588 51.6733 L956.317 51.6733 Q956.803 59.3701 960.935 63.421 Q965.107 67.4314 972.521 67.4314 Q976.815 67.4314 980.825 66.3781 Q984.876 65.3249 988.846 63.2184 L988.846 70.267 Q984.835 71.9684 980.622 72.8596 Q976.409 73.7508 972.075 73.7508 Q961.219 73.7508 954.859 67.4314 Q948.539 61.1119 948.539 50.3365 Q948.539 39.1965 954.535 32.6746 Q960.57 26.1121 970.779 26.1121 Q979.934 26.1121 985.24 32.0264 Q990.588 37.9003 990.588 48.0275 M983.134 45.84 Q983.053 39.7232 979.691 36.0774 Q976.369 32.4315 970.86 32.4315 Q964.621 32.4315 960.854 35.9558 Q957.127 39.4801 956.56 45.8805 L983.134 45.84 Z" fill="#000000" fill-rule="nonzero" fill-opacity="1" /><path clip-path="url(#clip690)" d="M1046.77 32.4315 Q1040.78 32.4315 1037.29 37.1306 Q1033.81 41.7891 1033.81 49.9314 Q1033.81 58.0738 1037.25 62.7728 Q1040.74 67.4314 1046.77 67.4314 Q1052.73 67.4314 1056.21 62.7323 Q1059.7 58.0333 1059.7 49.9314 Q1059.7 41.8701 1056.21 37.1711 Q1052.73 32.4315 1046.77 32.4315 M1046.77 26.1121 Q1056.5 26.1121 1062.05 32.4315 Q1067.6 38.7509 1067.6 49.9314 Q1067.6 61.0714 1062.05 67.4314 Q1056.5 73.7508 1046.77 73.7508 Q1037.01 73.7508 1031.46 67.4314 Q1025.95 61.0714 1025.95 49.9314 Q1025.95 38.7509 1031.46 32.4315 Q1037.01 26.1121 1046.77 26.1121 Z" fill="#000000" fill-rule="nonzero" fill-opacity="1" /><path clip-path="url(#clip690)" d="M1102.92 9.54393 L1102.92 15.7418 L1095.79 15.7418 Q1091.78 15.7418 1090.2 17.3622 Q1088.66 18.9825 1088.66 23.1955 L1088.66 27.2059 L1100.93 27.2059 L1100.93 32.9987 L1088.66 32.9987 L1088.66 72.576 L1081.17 72.576 L1081.17 32.9987 L1074.04 32.9987 L1074.04 27.2059 L1081.17 27.2059 L1081.17 24.0462 Q1081.17 16.471 1084.69 13.0277 Q1088.21 9.54393 1095.87 9.54393 L1102.92 9.54393 Z" fill="#000000" fill-rule="nonzero" fill-opacity="1" /><path clip-path="url(#clip690)" d="M1142.9 14.324 L1142.9 27.2059 L1158.25 27.2059 L1158.25 32.9987 L1142.9 32.9987 L1142.9 57.6282 Q1142.9 63.1779 1144.4 64.7578 Q1145.94 66.3376 1150.6 66.3376 L1158.25 66.3376 L1158.25 72.576 L1150.6 72.576 Q1141.97 72.576 1138.69 69.3758 Q1135.41 66.1351 1135.41 57.6282 L1135.41 32.9987 L1129.94 32.9987 L1129.94 27.2059 L1135.41 27.2059 L1135.41 14.324 L1142.9 14.324 Z" fill="#000000" fill-rule="nonzero" fill-opacity="1" /><path clip-path="url(#clip690)" d="M1194.35 34.1734 Q1193.09 33.4443 1191.59 33.1202 Q1190.14 32.7556 1188.35 32.7556 Q1182.03 32.7556 1178.63 36.8875 Q1175.27 40.9789 1175.27 48.6757 L1175.27 72.576 L1167.77 72.576 L1167.77 27.2059 L1175.27 27.2059 L1175.27 34.2544 Q1177.62 30.1225 1181.39 28.1376 Q1185.15 26.1121 1190.54 26.1121 Q1191.31 26.1121 1192.24 26.2337 Q1193.17 26.3147 1194.31 26.5172 L1194.35 34.1734 Z" fill="#000000" fill-rule="nonzero" fill-opacity="1" /><path clip-path="url(#clip690)" d="M1239.15 48.0275 L1239.15 51.6733 L1204.88 51.6733 Q1205.37 59.3701 1209.5 63.421 Q1213.67 67.4314 1221.08 67.4314 Q1225.38 67.4314 1229.39 66.3781 Q1233.44 65.3249 1237.41 63.2184 L1237.41 70.267 Q1233.4 71.9684 1229.19 72.8596 Q1224.97 73.7508 1220.64 73.7508 Q1209.78 73.7508 1203.42 67.4314 Q1197.1 61.1119 1197.1 50.3365 Q1197.1 39.1965 1203.1 32.6746 Q1209.13 26.1121 1219.34 26.1121 Q1228.5 26.1121 1233.8 32.0264 Q1239.15 37.9003 1239.15 48.0275 M1231.7 45.84 Q1231.62 39.7232 1228.25 36.0774 Q1224.93 32.4315 1219.42 32.4315 Q1213.18 32.4315 1209.42 35.9558 Q1205.69 39.4801 1205.12 45.8805 L1231.7 45.84 Z" fill="#000000" fill-rule="nonzero" fill-opacity="1" /><path clip-path="url(#clip690)" d="M1272 49.7694 Q1262.97 49.7694 1259.49 51.8354 Q1256 53.9013 1256 58.8839 Q1256 62.8538 1258.6 65.2034 Q1261.23 67.5124 1265.73 67.5124 Q1271.92 67.5124 1275.65 63.1374 Q1279.42 58.7219 1279.42 51.4303 L1279.42 49.7694 L1272 49.7694 M1286.87 46.6907 L1286.87 72.576 L1279.42 72.576 L1279.42 65.6895 Q1276.87 69.8214 1273.06 71.8063 Q1269.25 73.7508 1263.74 73.7508 Q1256.77 73.7508 1252.64 69.8619 Q1248.55 65.9325 1248.55 59.3701 Q1248.55 51.7138 1253.65 47.825 Q1258.8 43.9361 1268.97 43.9361 L1279.42 43.9361 L1279.42 43.2069 Q1279.42 38.0623 1276.01 35.2672 Q1272.65 32.4315 1266.54 32.4315 Q1262.65 32.4315 1258.96 33.3632 Q1255.27 34.295 1251.87 36.1584 L1251.87 29.2718 Q1255.96 27.692 1259.81 26.9223 Q1263.66 26.1121 1267.3 26.1121 Q1277.15 26.1121 1282.01 31.2163 Q1286.87 36.3204 1286.87 46.6907 Z" fill="#000000" fill-rule="nonzero" fill-opacity="1" /><path clip-path="url(#clip690)" d="M1309.6 14.324 L1309.6 27.2059 L1324.95 27.2059 L1324.95 32.9987 L1309.6 32.9987 L1309.6 57.6282 Q1309.6 63.1779 1311.1 64.7578 Q1312.63 66.3376 1317.29 66.3376 L1324.95 66.3376 L1324.95 72.576 L1317.29 72.576 Q1308.66 72.576 1305.38 69.3758 Q1302.1 66.1351 1302.1 57.6282 L1302.1 32.9987 L1296.63 32.9987 L1296.63 27.2059 L1302.1 27.2059 L1302.1 14.324 L1309.6 14.324 Z" fill="#000000" fill-rule="nonzero" fill-opacity="1" /><path clip-path="url(#clip690)" d="M1370.08 35.9153 Q1372.87 30.8922 1376.76 28.5022 Q1380.65 26.1121 1385.92 26.1121 Q1393 26.1121 1396.85 31.0947 Q1400.7 36.0368 1400.7 45.1919 L1400.7 72.576 L1393.21 72.576 L1393.21 45.4349 Q1393.21 38.913 1390.9 35.7533 Q1388.59 32.5936 1383.85 32.5936 Q1378.06 32.5936 1374.69 36.4419 Q1371.33 40.2903 1371.33 46.9338 L1371.33 72.576 L1363.84 72.576 L1363.84 45.4349 Q1363.84 38.8725 1361.53 35.7533 Q1359.22 32.5936 1354.4 32.5936 Q1348.69 32.5936 1345.33 36.4824 Q1341.96 40.3308 1341.96 46.9338 L1341.96 72.576 L1334.47 72.576 L1334.47 27.2059 L1341.96 27.2059 L1341.96 34.2544 Q1344.52 30.082 1348.08 28.0971 Q1351.64 26.1121 1356.55 26.1121 Q1361.49 26.1121 1364.93 28.6237 Q1368.42 31.1352 1370.08 35.9153 Z" fill="#000000" fill-rule="nonzero" fill-opacity="1" /><path clip-path="url(#clip690)" d="M1454.38 48.0275 L1454.38 51.6733 L1420.1 51.6733 Q1420.59 59.3701 1424.72 63.421 Q1428.9 67.4314 1436.31 67.4314 Q1440.6 67.4314 1444.61 66.3781 Q1448.66 65.3249 1452.63 63.2184 L1452.63 70.267 Q1448.62 71.9684 1444.41 72.8596 Q1440.2 73.7508 1435.86 73.7508 Q1425.01 73.7508 1418.65 67.4314 Q1412.33 61.1119 1412.33 50.3365 Q1412.33 39.1965 1418.32 32.6746 Q1424.36 26.1121 1434.57 26.1121 Q1443.72 26.1121 1449.03 32.0264 Q1454.38 37.9003 1454.38 48.0275 M1446.92 45.84 Q1446.84 39.7232 1443.48 36.0774 Q1440.16 32.4315 1434.65 32.4315 Q1428.41 32.4315 1424.64 35.9558 Q1420.92 39.4801 1420.35 45.8805 L1446.92 45.84 Z" fill="#000000" fill-rule="nonzero" fill-opacity="1" /><path clip-path="url(#clip690)" d="M1504.32 45.1919 L1504.32 72.576 L1496.87 72.576 L1496.87 45.4349 Q1496.87 38.994 1494.36 35.7938 Q1491.85 32.5936 1486.82 32.5936 Q1480.79 32.5936 1477.3 36.4419 Q1473.82 40.2903 1473.82 46.9338 L1473.82 72.576 L1466.33 72.576 L1466.33 27.2059 L1473.82 27.2059 L1473.82 34.2544 Q1476.49 30.163 1480.1 28.1376 Q1483.74 26.1121 1488.48 26.1121 Q1496.3 26.1121 1500.31 30.9732 Q1504.32 35.7938 1504.32 45.1919 Z" fill="#000000" fill-rule="nonzero" fill-opacity="1" /><path clip-path="url(#clip690)" d="M1526.56 14.324 L1526.56 27.2059 L1541.92 27.2059 L1541.92 32.9987 L1526.56 32.9987 L1526.56 57.6282 Q1526.56 63.1779 1528.06 64.7578 Q1529.6 66.3376 1534.26 66.3376 L1541.92 66.3376 L1541.92 72.576 L1534.26 72.576 Q1525.63 72.576 1522.35 69.3758 Q1519.07 66.1351 1519.07 57.6282 L1519.07 32.9987 L1513.6 32.9987 L1513.6 27.2059 L1519.07 27.2059 L1519.07 14.324 L1526.56 14.324 Z" fill="#000000" fill-rule="nonzero" fill-opacity="1" /><circle clip-path="url(#clip692)" cx="296.491" cy="636.16" r="14.4" fill="#009af9" fill-rule="evenodd" fill-opacity="1" stroke="#000000" stroke-opacity="1" stroke-width="2.688"/>
<polyline clip-path="url(#clip692)" style="stroke:#e26f46; stroke-linecap:round; stroke-linejoin:round; stroke-width:4; stroke-opacity:1; fill:none" points="296.491,1121.8 296.491,150.518 "/>
<circle clip-path="url(#clip692)" cx="1154.87" cy="656.224" r="14.4" fill="#3da44d" fill-rule="evenodd" fill-opacity="1" stroke="#000000" stroke-opacity="1" stroke-width="2.688"/>
<polyline clip-path="url(#clip692)" style="stroke:#c271d2; stroke-linecap:round; stroke-linejoin:round; stroke-width:4; stroke-opacity:1; fill:none" points="1154.87,1138.53 1154.87,173.913 "/>
<circle clip-path="url(#clip692)" cx="2013.25" cy="663.704" r="14.4" fill="#ac8d18" fill-rule="evenodd" fill-opacity="1" stroke="#000000" stroke-opacity="1" stroke-width="2.688"/>
<polyline clip-path="url(#clip692)" style="stroke:#00a9ad; stroke-linecap:round; stroke-linejoin:round; stroke-width:4; stroke-opacity:1; fill:none" points="2013.25,1143.68 2013.25,183.731 "/>
</svg>
