<?xml version="1.0" encoding="utf-8"?>
<svg xmlns="http://www.w3.org/2000/svg" xmlns:xlink="http://www.w3.org/1999/xlink" width="528" height="336" viewBox="0 0 2112 1344">
<defs>
  <clipPath id="clip750">
    <rect x="0" y="0" width="2112" height="1344"/>
  </clipPath>
</defs>
<path clip-path="url(#clip750)" d="M0 1344 L2112 1344 L2112 0 L0 0  Z" fill="#ffffff" fill-rule="evenodd" fill-opacity="1"/>
<defs>
  <clipPath id="clip751">
    <rect x="422" y="0" width="1479" height="1344"/>
  </clipPath>
</defs>
<path clip-path="url(#clip750)" d="M282.326 1173.47 L2064.76 1173.47 L2064.76 120.723 L282.326 120.723  Z" fill="#ffffff" fill-rule="evenodd" fill-opacity="1"/>
<defs>
  <clipPath id="clip752">
    <rect x="282" y="120" width="1783" height="1054"/>
  </clipPath>
</defs>
<polyline clip-path="url(#clip752)" style="stroke:#000000; stroke-linecap:round; stroke-linejoin:round; stroke-width:2; stroke-opacity:0.1; fill:none" points="332.772,1173.47 332.772,120.723 "/>
<polyline clip-path="url(#clip752)" style="stroke:#000000; stroke-linecap:round; stroke-linejoin:round; stroke-width:2; stroke-opacity:0.1; fill:none" points="1173.54,1173.47 1173.54,120.723 "/>
<polyline clip-path="url(#clip752)" style="stroke:#000000; stroke-linecap:round; stroke-linejoin:round; stroke-width:2; stroke-opacity:0.1; fill:none" points="2014.31,1173.47 2014.31,120.723 "/>
<polyline clip-path="url(#clip750)" style="stroke:#000000; stroke-linecap:round; stroke-linejoin:round; stroke-width:4; stroke-opacity:1; fill:none" points="282.326,1173.47 2064.76,1173.47 "/>
<polyline clip-path="url(#clip750)" style="stroke:#000000; stroke-linecap:round; stroke-linejoin:round; stroke-width:4; stroke-opacity:1; fill:none" points="332.772,1173.47 332.772,1154.57 "/>
<polyline clip-path="url(#clip750)" style="stroke:#000000; stroke-linecap:round; stroke-linejoin:round; stroke-width:4; stroke-opacity:1; fill:none" points="1173.54,1173.47 1173.54,1154.57 "/>
<polyline clip-path="url(#clip750)" style="stroke:#000000; stroke-linecap:round; stroke-linejoin:round; stroke-width:4; stroke-opacity:1; fill:none" points="2014.31,1173.47 2014.31,1154.57 "/>
<path clip-path="url(#clip750)" d="M269.462 1199.01 L274.138 1199.01 L274.138 1229.63 L290.967 1229.63 L290.967 1233.57 L269.462 1233.57 L269.462 1199.01 Z" fill="#000000" fill-rule="nonzero" fill-opacity="1" /><path clip-path="url(#clip750)" d="M307.471 1220.53 Q302.309 1220.53 300.319 1221.71 Q298.328 1222.9 298.328 1225.74 Q298.328 1228.01 299.809 1229.35 Q301.314 1230.67 303.883 1230.67 Q307.425 1230.67 309.555 1228.17 Q311.707 1225.65 311.707 1221.48 L311.707 1220.53 L307.471 1220.53 M315.967 1218.78 L315.967 1233.57 L311.707 1233.57 L311.707 1229.63 Q310.249 1231.99 308.073 1233.13 Q305.897 1234.24 302.749 1234.24 Q298.768 1234.24 296.406 1232.02 Q294.069 1229.77 294.069 1226.02 Q294.069 1221.65 296.985 1219.42 Q299.925 1217.2 305.735 1217.2 L311.707 1217.2 L311.707 1216.78 Q311.707 1213.84 309.763 1212.25 Q307.842 1210.63 304.346 1210.63 Q302.124 1210.63 300.018 1211.16 Q297.911 1211.69 295.967 1212.76 L295.967 1208.82 Q298.305 1207.92 300.504 1207.48 Q302.703 1207.02 304.786 1207.02 Q310.411 1207.02 313.189 1209.93 Q315.967 1212.85 315.967 1218.78 Z" fill="#000000" fill-rule="nonzero" fill-opacity="1" /><path clip-path="url(#clip750)" d="M341.267 1208.4 L341.267 1212.43 Q339.462 1211.51 337.517 1211.04 Q335.573 1210.58 333.49 1210.58 Q330.318 1210.58 328.721 1211.55 Q327.147 1212.53 327.147 1214.47 Q327.147 1215.95 328.281 1216.81 Q329.416 1217.64 332.841 1218.4 L334.3 1218.73 Q338.837 1219.7 340.735 1221.48 Q342.656 1223.24 342.656 1226.41 Q342.656 1230.03 339.786 1232.13 Q336.939 1234.24 331.939 1234.24 Q329.855 1234.24 327.587 1233.82 Q325.342 1233.43 322.842 1232.62 L322.842 1228.22 Q325.203 1229.45 327.494 1230.07 Q329.786 1230.67 332.031 1230.67 Q335.041 1230.67 336.661 1229.65 Q338.281 1228.61 338.281 1226.74 Q338.281 1225 337.101 1224.08 Q335.943 1223.15 331.985 1222.29 L330.504 1221.95 Q326.545 1221.11 324.786 1219.4 Q323.027 1217.66 323.027 1214.65 Q323.027 1211 325.619 1209.01 Q328.212 1207.02 332.98 1207.02 Q335.341 1207.02 337.425 1207.36 Q339.508 1207.71 341.267 1208.4 Z" fill="#000000" fill-rule="nonzero" fill-opacity="1" /><path clip-path="url(#clip750)" d="M365.966 1208.4 L365.966 1212.43 Q364.161 1211.51 362.216 1211.04 Q360.272 1210.58 358.189 1210.58 Q355.017 1210.58 353.42 1211.55 Q351.846 1212.53 351.846 1214.47 Q351.846 1215.95 352.98 1216.81 Q354.115 1217.64 357.54 1218.4 L358.999 1218.73 Q363.536 1219.7 365.434 1221.48 Q367.355 1223.24 367.355 1226.41 Q367.355 1230.03 364.485 1232.13 Q361.638 1234.24 356.638 1234.24 Q354.554 1234.24 352.286 1233.82 Q350.04 1233.43 347.54 1232.62 L347.54 1228.22 Q349.902 1229.45 352.193 1230.07 Q354.485 1230.67 356.73 1230.67 Q359.739 1230.67 361.36 1229.65 Q362.98 1228.61 362.98 1226.74 Q362.98 1225 361.8 1224.08 Q360.642 1223.15 356.684 1222.29 L355.202 1221.95 Q351.244 1221.11 349.485 1219.4 Q347.726 1217.66 347.726 1214.65 Q347.726 1211 350.318 1209.01 Q352.911 1207.02 357.679 1207.02 Q360.04 1207.02 362.124 1207.36 Q364.207 1207.71 365.966 1208.4 Z" fill="#000000" fill-rule="nonzero" fill-opacity="1" /><path clip-path="url(#clip750)" d="M384.184 1210.63 Q380.758 1210.63 378.767 1213.31 Q376.776 1215.97 376.776 1220.63 Q376.776 1225.28 378.744 1227.96 Q380.735 1230.63 384.184 1230.63 Q387.587 1230.63 389.577 1227.94 Q391.568 1225.26 391.568 1220.63 Q391.568 1216.02 389.577 1213.34 Q387.587 1210.63 384.184 1210.63 M384.184 1207.02 Q389.739 1207.02 392.911 1210.63 Q396.082 1214.24 396.082 1220.63 Q396.082 1226.99 392.911 1230.63 Q389.739 1234.24 384.184 1234.24 Q378.605 1234.24 375.434 1230.63 Q372.286 1226.99 372.286 1220.63 Q372.286 1214.24 375.434 1210.63 Q378.605 1207.02 384.184 1207.02 Z" fill="#000000" fill-rule="nonzero" fill-opacity="1" /><path clip-path="url(#clip750)" d="M1071.57 1217.36 Q1073.08 1217.87 1074.49 1219.54 Q1075.93 1221.21 1077.36 1224.12 L1082.11 1233.57 L1077.08 1233.57 L1072.66 1224.7 Q1070.95 1221.23 1069.33 1220.09 Q1067.73 1218.96 1064.95 1218.96 L1059.86 1218.96 L1059.86 1233.57 L1055.19 1233.57 L1055.19 1199.01 L1065.74 1199.01 Q1071.67 1199.01 1074.58 1201.48 Q1077.5 1203.96 1077.5 1208.96 Q1077.5 1212.22 1075.97 1214.38 Q1074.47 1216.53 1071.57 1217.36 M1059.86 1202.85 L1059.86 1215.12 L1065.74 1215.12 Q1069.12 1215.12 1070.83 1213.57 Q1072.57 1211.99 1072.57 1208.96 Q1072.57 1205.93 1070.83 1204.4 Q1069.12 1202.85 1065.74 1202.85 L1059.86 1202.85 Z" fill="#000000" fill-rule="nonzero" fill-opacity="1" /><path clip-path="url(#clip750)" d="M1107.99 1219.54 L1107.99 1221.62 L1088.4 1221.62 Q1088.68 1226.02 1091.04 1228.34 Q1093.43 1230.63 1097.66 1230.63 Q1100.12 1230.63 1102.41 1230.03 Q1104.72 1229.42 1106.99 1228.22 L1106.99 1232.25 Q1104.7 1233.22 1102.29 1233.73 Q1099.88 1234.24 1097.41 1234.24 Q1091.2 1234.24 1087.57 1230.63 Q1083.96 1227.02 1083.96 1220.86 Q1083.96 1214.49 1087.38 1210.77 Q1090.83 1207.02 1096.67 1207.02 Q1101.9 1207.02 1104.93 1210.4 Q1107.99 1213.75 1107.99 1219.54 M1103.73 1218.29 Q1103.68 1214.79 1101.76 1212.71 Q1099.86 1210.63 1096.71 1210.63 Q1093.15 1210.63 1091 1212.64 Q1088.87 1214.65 1088.54 1218.31 L1103.73 1218.29 Z" fill="#000000" fill-rule="nonzero" fill-opacity="1" /><path clip-path="url(#clip750)" d="M1132.04 1220.3 Q1132.04 1215.67 1130.12 1213.13 Q1128.22 1210.58 1124.77 1210.58 Q1121.34 1210.58 1119.42 1213.13 Q1117.52 1215.67 1117.52 1220.3 Q1117.52 1224.91 1119.42 1227.46 Q1121.34 1230 1124.77 1230 Q1128.22 1230 1130.12 1227.46 Q1132.04 1224.91 1132.04 1220.3 M1136.3 1230.35 Q1136.3 1236.97 1133.36 1240.19 Q1130.42 1243.43 1124.35 1243.43 Q1122.11 1243.43 1120.12 1243.08 Q1118.12 1242.76 1116.25 1242.06 L1116.25 1237.92 Q1118.12 1238.94 1119.95 1239.42 Q1121.78 1239.91 1123.68 1239.91 Q1127.87 1239.91 1129.95 1237.71 Q1132.04 1235.53 1132.04 1231.11 L1132.04 1229.01 Q1130.72 1231.3 1128.66 1232.43 Q1126.6 1233.57 1123.73 1233.57 Q1118.96 1233.57 1116.04 1229.93 Q1113.12 1226.3 1113.12 1220.3 Q1113.12 1214.28 1116.04 1210.65 Q1118.96 1207.02 1123.73 1207.02 Q1126.6 1207.02 1128.66 1208.15 Q1130.72 1209.28 1132.04 1211.58 L1132.04 1207.64 L1136.3 1207.64 L1136.3 1230.35 Z" fill="#000000" fill-rule="nonzero" fill-opacity="1" /><path clip-path="url(#clip750)" d="M1145.67 1227.69 L1150.55 1227.69 L1150.55 1233.57 L1145.67 1233.57 L1145.67 1227.69 Z" fill="#000000" fill-rule="nonzero" fill-opacity="1" /><path clip-path="url(#clip750)" d="M1170.6 1199.01 L1199.84 1199.01 L1199.84 1202.94 L1187.57 1202.94 L1187.57 1233.57 L1182.87 1233.57 L1182.87 1202.94 L1170.6 1202.94 L1170.6 1199.01 Z" fill="#000000" fill-rule="nonzero" fill-opacity="1" /><path clip-path="url(#clip750)" d="M1212.22 1211.62 Q1211.5 1211.21 1210.65 1211.02 Q1209.81 1210.81 1208.8 1210.81 Q1205.18 1210.81 1203.24 1213.17 Q1201.32 1215.51 1201.32 1219.91 L1201.32 1233.57 L1197.04 1233.57 L1197.04 1207.64 L1201.32 1207.64 L1201.32 1211.67 Q1202.66 1209.31 1204.81 1208.17 Q1206.97 1207.02 1210.05 1207.02 Q1210.49 1207.02 1211.02 1207.09 Q1211.55 1207.13 1212.2 1207.25 L1212.22 1211.62 Z" fill="#000000" fill-rule="nonzero" fill-opacity="1" /><path clip-path="url(#clip750)" d="M1237.82 1219.54 L1237.82 1221.62 L1218.24 1221.62 Q1218.52 1226.02 1220.88 1228.34 Q1223.26 1230.63 1227.5 1230.63 Q1229.95 1230.63 1232.24 1230.03 Q1234.56 1229.42 1236.83 1228.22 L1236.83 1232.25 Q1234.54 1233.22 1232.13 1233.73 Q1229.72 1234.24 1227.24 1234.24 Q1221.04 1234.24 1217.41 1230.63 Q1213.8 1227.02 1213.8 1220.86 Q1213.8 1214.49 1217.22 1210.77 Q1220.67 1207.02 1226.5 1207.02 Q1231.74 1207.02 1234.77 1210.4 Q1237.82 1213.75 1237.82 1219.54 M1233.56 1218.29 Q1233.52 1214.79 1231.6 1212.71 Q1229.7 1210.63 1226.55 1210.63 Q1222.99 1210.63 1220.83 1212.64 Q1218.7 1214.65 1218.38 1218.31 L1233.56 1218.29 Z" fill="#000000" fill-rule="nonzero" fill-opacity="1" /><path clip-path="url(#clip750)" d="M1266.99 1219.54 L1266.99 1221.62 L1247.41 1221.62 Q1247.68 1226.02 1250.05 1228.34 Q1252.43 1230.63 1256.67 1230.63 Q1259.12 1230.63 1261.41 1230.03 Q1263.73 1229.42 1265.99 1228.22 L1265.99 1232.25 Q1263.7 1233.22 1261.3 1233.73 Q1258.89 1234.24 1256.41 1234.24 Q1250.21 1234.24 1246.57 1230.63 Q1242.96 1227.02 1242.96 1220.86 Q1242.96 1214.49 1246.39 1210.77 Q1249.84 1207.02 1255.67 1207.02 Q1260.9 1207.02 1263.93 1210.4 Q1266.99 1213.75 1266.99 1219.54 M1262.73 1218.29 Q1262.68 1214.79 1260.76 1212.71 Q1258.86 1210.63 1255.72 1210.63 Q1252.15 1210.63 1250 1212.64 Q1247.87 1214.65 1247.55 1218.31 L1262.73 1218.29 Z" fill="#000000" fill-rule="nonzero" fill-opacity="1" /><path clip-path="url(#clip750)" d="M1290.51 1208.4 L1290.51 1212.43 Q1288.7 1211.51 1286.76 1211.04 Q1284.81 1210.58 1282.73 1210.58 Q1279.56 1210.58 1277.96 1211.55 Q1276.39 1212.53 1276.39 1214.47 Q1276.39 1215.95 1277.52 1216.81 Q1278.66 1217.64 1282.08 1218.4 L1283.54 1218.73 Q1288.08 1219.7 1289.98 1221.48 Q1291.9 1223.24 1291.9 1226.41 Q1291.9 1230.03 1289.03 1232.13 Q1286.18 1234.24 1281.18 1234.24 Q1279.1 1234.24 1276.83 1233.82 Q1274.58 1233.43 1272.08 1232.62 L1272.08 1228.22 Q1274.44 1229.45 1276.73 1230.07 Q1279.03 1230.67 1281.27 1230.67 Q1284.28 1230.67 1285.9 1229.65 Q1287.52 1228.61 1287.52 1226.74 Q1287.52 1225 1286.34 1224.08 Q1285.18 1223.15 1281.23 1222.29 L1279.74 1221.95 Q1275.79 1221.11 1274.03 1219.4 Q1272.27 1217.66 1272.27 1214.65 Q1272.27 1211 1274.86 1209.01 Q1277.45 1207.02 1282.22 1207.02 Q1284.58 1207.02 1286.67 1207.36 Q1288.75 1207.71 1290.51 1208.4 Z" fill="#000000" fill-rule="nonzero" fill-opacity="1" /><path clip-path="url(#clip750)" d="M1900.75 1217.36 Q1902.25 1217.87 1903.66 1219.54 Q1905.1 1221.21 1906.53 1224.12 L1911.28 1233.57 L1906.25 1233.57 L1901.83 1224.7 Q1900.12 1221.23 1898.5 1220.09 Q1896.9 1218.96 1894.13 1218.96 L1889.03 1218.96 L1889.03 1233.57 L1884.36 1233.57 L1884.36 1199.01 L1894.91 1199.01 Q1900.84 1199.01 1903.75 1201.48 Q1906.67 1203.96 1906.67 1208.96 Q1906.67 1212.22 1905.14 1214.38 Q1903.64 1216.53 1900.75 1217.36 M1889.03 1202.85 L1889.03 1215.12 L1894.91 1215.12 Q1898.29 1215.12 1900 1213.57 Q1901.74 1211.99 1901.74 1208.96 Q1901.74 1205.93 1900 1204.4 Q1898.29 1202.85 1894.91 1202.85 L1889.03 1202.85 Z" fill="#000000" fill-rule="nonzero" fill-opacity="1" /><path clip-path="url(#clip750)" d="M1937.16 1219.54 L1937.16 1221.62 L1917.57 1221.62 Q1917.85 1226.02 1920.21 1228.34 Q1922.6 1230.63 1926.83 1230.63 Q1929.29 1230.63 1931.58 1230.03 Q1933.89 1229.42 1936.16 1228.22 L1936.16 1232.25 Q1933.87 1233.22 1931.46 1233.73 Q1929.06 1234.24 1926.58 1234.24 Q1920.38 1234.24 1916.74 1230.63 Q1913.13 1227.02 1913.13 1220.86 Q1913.13 1214.49 1916.56 1210.77 Q1920 1207.02 1925.84 1207.02 Q1931.07 1207.02 1934.1 1210.4 Q1937.16 1213.75 1937.16 1219.54 M1932.9 1218.29 Q1932.85 1214.79 1930.93 1212.71 Q1929.03 1210.63 1925.88 1210.63 Q1922.32 1210.63 1920.17 1212.64 Q1918.04 1214.65 1917.71 1218.31 L1932.9 1218.29 Z" fill="#000000" fill-rule="nonzero" fill-opacity="1" /><path clip-path="url(#clip750)" d="M1961.21 1220.3 Q1961.21 1215.67 1959.29 1213.13 Q1957.39 1210.58 1953.94 1210.58 Q1950.51 1210.58 1948.59 1213.13 Q1946.69 1215.67 1946.69 1220.3 Q1946.69 1224.91 1948.59 1227.46 Q1950.51 1230 1953.94 1230 Q1957.39 1230 1959.29 1227.46 Q1961.21 1224.91 1961.21 1220.3 M1965.47 1230.35 Q1965.47 1236.97 1962.53 1240.19 Q1959.59 1243.43 1953.52 1243.43 Q1951.28 1243.43 1949.29 1243.08 Q1947.3 1242.76 1945.42 1242.06 L1945.42 1237.92 Q1947.3 1238.94 1949.12 1239.42 Q1950.95 1239.91 1952.85 1239.91 Q1957.04 1239.91 1959.12 1237.71 Q1961.21 1235.53 1961.21 1231.11 L1961.21 1229.01 Q1959.89 1231.3 1957.83 1232.43 Q1955.77 1233.57 1952.9 1233.57 Q1948.13 1233.57 1945.21 1229.93 Q1942.3 1226.3 1942.3 1220.3 Q1942.3 1214.28 1945.21 1210.65 Q1948.13 1207.02 1952.9 1207.02 Q1955.77 1207.02 1957.83 1208.15 Q1959.89 1209.28 1961.21 1211.58 L1961.21 1207.64 L1965.47 1207.64 L1965.47 1230.35 Z" fill="#000000" fill-rule="nonzero" fill-opacity="1" /><path clip-path="url(#clip750)" d="M1974.84 1227.69 L1979.73 1227.69 L1979.73 1233.57 L1974.84 1233.57 L1974.84 1227.69 Z" fill="#000000" fill-rule="nonzero" fill-opacity="1" /><path clip-path="url(#clip750)" d="M2004.56 1199.01 L2024.43 1199.01 L2024.43 1202.94 L2009.24 1202.94 L2009.24 1213.13 L2022.94 1213.13 L2022.94 1217.06 L2009.24 1217.06 L2009.24 1233.57 L2004.56 1233.57 L2004.56 1199.01 Z" fill="#000000" fill-rule="nonzero" fill-opacity="1" /><path clip-path="url(#clip750)" d="M2040 1210.63 Q2036.58 1210.63 2034.59 1213.31 Q2032.6 1215.97 2032.6 1220.63 Q2032.6 1225.28 2034.56 1227.96 Q2036.56 1230.63 2040 1230.63 Q2043.41 1230.63 2045.4 1227.94 Q2047.39 1225.26 2047.39 1220.63 Q2047.39 1216.02 2045.4 1213.34 Q2043.41 1210.63 2040 1210.63 M2040 1207.02 Q2045.56 1207.02 2048.73 1210.63 Q2051.9 1214.24 2051.9 1220.63 Q2051.9 1226.99 2048.73 1230.63 Q2045.56 1234.24 2040 1234.24 Q2034.43 1234.24 2031.25 1230.63 Q2028.11 1226.99 2028.11 1220.63 Q2028.11 1214.24 2031.25 1210.63 Q2034.43 1207.02 2040 1207.02 Z" fill="#000000" fill-rule="nonzero" fill-opacity="1" /><path clip-path="url(#clip750)" d="M2073.99 1211.62 Q2073.27 1211.21 2072.41 1211.02 Q2071.58 1210.81 2070.56 1210.81 Q2066.95 1210.81 2065 1213.17 Q2063.08 1215.51 2063.08 1219.91 L2063.08 1233.57 L2058.8 1233.57 L2058.8 1207.64 L2063.08 1207.64 L2063.08 1211.67 Q2064.43 1209.31 2066.58 1208.17 Q2068.73 1207.02 2071.81 1207.02 Q2072.25 1207.02 2072.78 1207.09 Q2073.31 1207.13 2073.96 1207.25 L2073.99 1211.62 Z" fill="#000000" fill-rule="nonzero" fill-opacity="1" /><path clip-path="url(#clip750)" d="M2099.59 1219.54 L2099.59 1221.62 L2080 1221.62 Q2080.28 1226.02 2082.64 1228.34 Q2085.03 1230.63 2089.26 1230.63 Q2091.72 1230.63 2094.01 1230.03 Q2096.32 1229.42 2098.59 1228.22 L2098.59 1232.25 Q2096.3 1233.22 2093.89 1233.73 Q2091.49 1234.24 2089.01 1234.24 Q2082.8 1234.24 2079.17 1230.63 Q2075.56 1227.02 2075.56 1220.86 Q2075.56 1214.49 2078.99 1210.77 Q2082.43 1207.02 2088.27 1207.02 Q2093.5 1207.02 2096.53 1210.4 Q2099.59 1213.75 2099.59 1219.54 M2095.33 1218.29 Q2095.28 1214.79 2093.36 1212.71 Q2091.46 1210.63 2088.31 1210.63 Q2084.75 1210.63 2082.6 1212.64 Q2080.47 1214.65 2080.14 1218.31 L2095.33 1218.29 Z" fill="#000000" fill-rule="nonzero" fill-opacity="1" /><path clip-path="url(#clip750)" d="M2123.11 1208.4 L2123.11 1212.43 Q2121.3 1211.51 2119.36 1211.04 Q2117.41 1210.58 2115.33 1210.58 Q2112.16 1210.58 2110.56 1211.55 Q2108.99 1212.53 2108.99 1214.47 Q2108.99 1215.95 2110.12 1216.81 Q2111.25 1217.64 2114.68 1218.4 L2116.14 1218.73 Q2120.67 1219.7 2122.57 1221.48 Q2124.49 1223.24 2124.49 1226.41 Q2124.49 1230.03 2121.62 1232.13 Q2118.78 1234.24 2113.78 1234.24 Q2111.69 1234.24 2109.43 1233.82 Q2107.18 1233.43 2104.68 1232.62 L2104.68 1228.22 Q2107.04 1229.45 2109.33 1230.07 Q2111.62 1230.67 2113.87 1230.67 Q2116.88 1230.67 2118.5 1229.65 Q2120.12 1228.61 2120.12 1226.74 Q2120.12 1225 2118.94 1224.08 Q2117.78 1223.15 2113.82 1222.29 L2112.34 1221.95 Q2108.38 1221.11 2106.62 1219.4 Q2104.86 1217.66 2104.86 1214.65 Q2104.86 1211 2107.46 1209.01 Q2110.05 1207.02 2114.82 1207.02 Q2117.18 1207.02 2119.26 1207.36 Q2121.35 1207.71 2123.11 1208.4 Z" fill="#000000" fill-rule="nonzero" fill-opacity="1" /><path clip-path="url(#clip750)" d="M2135.49 1200.28 L2135.49 1207.64 L2144.26 1207.64 L2144.26 1210.95 L2135.49 1210.95 L2135.49 1225.03 Q2135.49 1228.2 2136.35 1229.1 Q2137.23 1230 2139.89 1230 L2144.26 1230 L2144.26 1233.57 L2139.89 1233.57 Q2134.96 1233.57 2133.08 1231.74 Q2131.21 1229.89 2131.21 1225.03 L2131.21 1210.95 L2128.08 1210.95 L2128.08 1207.64 L2131.21 1207.64 L2131.21 1200.28 L2135.49 1200.28 Z" fill="#000000" fill-rule="nonzero" fill-opacity="1" /><path clip-path="url(#clip750)" d="M1081.94 1266.49 L1091.52 1266.49 L1103.65 1298.83 L1115.84 1266.49 L1125.42 1266.49 L1125.42 1314.01 L1119.15 1314.01 L1119.15 1272.29 L1106.89 1304.88 L1100.43 1304.88 L1088.18 1272.29 L1088.18 1314.01 L1081.94 1314.01 L1081.94 1266.49 Z" fill="#000000" fill-rule="nonzero" fill-opacity="1" /><path clip-path="url(#clip750)" d="M1151.74 1282.47 Q1147.03 1282.47 1144.29 1286.16 Q1141.55 1289.83 1141.55 1296.22 Q1141.55 1302.62 1144.26 1306.31 Q1147 1309.97 1151.74 1309.97 Q1156.42 1309.97 1159.15 1306.28 Q1161.89 1302.59 1161.89 1296.22 Q1161.89 1289.89 1159.15 1286.2 Q1156.42 1282.47 1151.74 1282.47 M1151.74 1277.51 Q1159.38 1277.51 1163.74 1282.47 Q1168.1 1287.44 1168.1 1296.22 Q1168.1 1304.98 1163.74 1309.97 Q1159.38 1314.94 1151.74 1314.94 Q1144.07 1314.94 1139.71 1309.97 Q1135.38 1304.98 1135.38 1296.22 Q1135.38 1287.44 1139.71 1282.47 Q1144.07 1277.51 1151.74 1277.51 Z" fill="#000000" fill-rule="nonzero" fill-opacity="1" /><path clip-path="url(#clip750)" d="M1201.26 1283.78 L1201.26 1264.49 L1207.12 1264.49 L1207.12 1314.01 L1201.26 1314.01 L1201.26 1308.67 Q1199.42 1311.85 1196.58 1313.41 Q1193.78 1314.94 1189.84 1314.94 Q1183.38 1314.94 1179.3 1309.78 Q1175.26 1304.63 1175.26 1296.22 Q1175.26 1287.82 1179.3 1282.66 Q1183.38 1277.51 1189.84 1277.51 Q1193.78 1277.51 1196.58 1279.07 Q1199.42 1280.59 1201.26 1283.78 M1181.31 1296.22 Q1181.31 1302.68 1183.95 1306.38 Q1186.62 1310.04 1191.27 1310.04 Q1195.92 1310.04 1198.59 1306.38 Q1201.26 1302.68 1201.26 1296.22 Q1201.26 1289.76 1198.59 1286.1 Q1195.92 1282.41 1191.27 1282.41 Q1186.62 1282.41 1183.95 1286.1 Q1181.31 1289.76 1181.31 1296.22 Z" fill="#000000" fill-rule="nonzero" fill-opacity="1" /><path clip-path="url(#clip750)" d="M1249.67 1294.73 L1249.67 1297.59 L1222.75 1297.59 Q1223.13 1303.64 1226.38 1306.82 Q1229.65 1309.97 1235.48 1309.97 Q1238.85 1309.97 1242 1309.14 Q1245.19 1308.32 1248.31 1306.66 L1248.31 1312.2 Q1245.16 1313.54 1241.84 1314.24 Q1238.53 1314.94 1235.13 1314.94 Q1226.6 1314.94 1221.6 1309.97 Q1216.64 1305.01 1216.64 1296.54 Q1216.64 1287.79 1221.35 1282.66 Q1226.09 1277.51 1234.11 1277.51 Q1241.3 1277.51 1245.47 1282.15 Q1249.67 1286.77 1249.67 1294.73 M1243.82 1293.01 Q1243.75 1288.2 1241.11 1285.34 Q1238.5 1282.47 1234.17 1282.47 Q1229.27 1282.47 1226.31 1285.24 Q1223.38 1288.01 1222.94 1293.04 L1243.82 1293.01 Z" fill="#000000" fill-rule="nonzero" fill-opacity="1" /><path clip-path="url(#clip750)" d="M1259.29 1264.49 L1265.14 1264.49 L1265.14 1314.01 L1259.29 1314.01 L1259.29 1264.49 Z" fill="#000000" fill-rule="nonzero" fill-opacity="1" /><polyline clip-path="url(#clip752)" style="stroke:#000000; stroke-linecap:round; stroke-linejoin:round; stroke-width:2; stroke-opacity:0.1; fill:none" points="282.326,1018.05 2064.76,1018.05 "/>
<polyline clip-path="url(#clip752)" style="stroke:#000000; stroke-linecap:round; stroke-linejoin:round; stroke-width:2; stroke-opacity:0.1; fill:none" points="282.326,738.264 2064.76,738.264 "/>
<polyline clip-path="url(#clip752)" style="stroke:#000000; stroke-linecap:round; stroke-linejoin:round; stroke-width:2; stroke-opacity:0.1; fill:none" points="282.326,458.474 2064.76,458.474 "/>
<polyline clip-path="url(#clip752)" style="stroke:#000000; stroke-linecap:round; stroke-linejoin:round; stroke-width:2; stroke-opacity:0.1; fill:none" points="282.326,178.684 2064.76,178.684 "/>
<polyline clip-path="url(#clip750)" style="stroke:#000000; stroke-linecap:round; stroke-linejoin:round; stroke-width:4; stroke-opacity:1; fill:none" points="282.326,1173.47 282.326,120.723 "/>
<polyline clip-path="url(#clip750)" style="stroke:#000000; stroke-linecap:round; stroke-linejoin:round; stroke-width:4; stroke-opacity:1; fill:none" points="282.326,1018.05 301.224,1018.05 "/>
<polyline clip-path="url(#clip750)" style="stroke:#000000; stroke-linecap:round; stroke-linejoin:round; stroke-width:4; stroke-opacity:1; fill:none" points="282.326,738.264 301.224,738.264 "/>
<polyline clip-path="url(#clip750)" style="stroke:#000000; stroke-linecap:round; stroke-linejoin:round; stroke-width:4; stroke-opacity:1; fill:none" points="282.326,458.474 301.224,458.474 "/>
<polyline clip-path="url(#clip750)" style="stroke:#000000; stroke-linecap:round; stroke-linejoin:round; stroke-width:4; stroke-opacity:1; fill:none" points="282.326,178.684 301.224,178.684 "/>
<path clip-path="url(#clip750)" d="M113.54 1018.51 L143.216 1018.51 L143.216 1022.44 L113.54 1022.44 L113.54 1018.51 Z" fill="#000000" fill-rule="nonzero" fill-opacity="1" /><path clip-path="url(#clip750)" d="M163.308 1003.85 Q159.697 1003.85 157.869 1007.42 Q156.063 1010.96 156.063 1018.09 Q156.063 1025.2 157.869 1028.76 Q159.697 1032.3 163.308 1032.3 Q166.943 1032.3 168.748 1028.76 Q170.577 1025.2 170.577 1018.09 Q170.577 1010.96 168.748 1007.42 Q166.943 1003.85 163.308 1003.85 M163.308 1000.15 Q169.119 1000.15 172.174 1004.76 Q175.253 1009.34 175.253 1018.09 Q175.253 1026.82 172.174 1031.42 Q169.119 1036.01 163.308 1036.01 Q157.498 1036.01 154.42 1031.42 Q151.364 1026.82 151.364 1018.09 Q151.364 1009.34 154.42 1004.76 Q157.498 1000.15 163.308 1000.15 Z" fill="#000000" fill-rule="nonzero" fill-opacity="1" /><path clip-path="url(#clip750)" d="M183.47 1029.45 L188.355 1029.45 L188.355 1035.33 L183.47 1035.33 L183.47 1029.45 Z" fill="#000000" fill-rule="nonzero" fill-opacity="1" /><path clip-path="url(#clip750)" d="M199.35 1031.4 L206.989 1031.4 L206.989 1005.03 L198.679 1006.7 L198.679 1002.44 L206.942 1000.77 L211.618 1000.77 L211.618 1031.4 L219.257 1031.4 L219.257 1035.33 L199.35 1035.33 L199.35 1031.4 Z" fill="#000000" fill-rule="nonzero" fill-opacity="1" /><path clip-path="url(#clip750)" d="M238.702 1003.85 Q235.09 1003.85 233.262 1007.42 Q231.456 1010.96 231.456 1018.09 Q231.456 1025.2 233.262 1028.76 Q235.09 1032.3 238.702 1032.3 Q242.336 1032.3 244.141 1028.76 Q245.97 1025.2 245.97 1018.09 Q245.97 1010.96 244.141 1007.42 Q242.336 1003.85 238.702 1003.85 M238.702 1000.15 Q244.512 1000.15 247.567 1004.76 Q250.646 1009.34 250.646 1018.09 Q250.646 1026.82 247.567 1031.42 Q244.512 1036.01 238.702 1036.01 Q232.891 1036.01 229.813 1031.42 Q226.757 1026.82 226.757 1018.09 Q226.757 1009.34 229.813 1004.76 Q232.891 1000.15 238.702 1000.15 Z" fill="#000000" fill-rule="nonzero" fill-opacity="1" /><path clip-path="url(#clip750)" d="M114.536 738.715 L144.211 738.715 L144.211 742.651 L114.536 742.651 L114.536 738.715 Z" fill="#000000" fill-rule="nonzero" fill-opacity="1" /><path clip-path="url(#clip750)" d="M164.304 724.063 Q160.693 724.063 158.864 727.628 Q157.058 731.169 157.058 738.299 Q157.058 745.405 158.864 748.97 Q160.693 752.512 164.304 752.512 Q167.938 752.512 169.744 748.97 Q171.572 745.405 171.572 738.299 Q171.572 731.169 169.744 727.628 Q167.938 724.063 164.304 724.063 M164.304 720.359 Q170.114 720.359 173.169 724.966 Q176.248 729.549 176.248 738.299 Q176.248 747.026 173.169 751.632 Q170.114 756.215 164.304 756.215 Q158.494 756.215 155.415 751.632 Q152.359 747.026 152.359 738.299 Q152.359 729.549 155.415 724.966 Q158.494 720.359 164.304 720.359 Z" fill="#000000" fill-rule="nonzero" fill-opacity="1" /><path clip-path="url(#clip750)" d="M184.466 749.664 L189.35 749.664 L189.35 755.544 L184.466 755.544 L184.466 749.664 Z" fill="#000000" fill-rule="nonzero" fill-opacity="1" /><path clip-path="url(#clip750)" d="M209.535 724.063 Q205.924 724.063 204.095 727.628 Q202.29 731.169 202.29 738.299 Q202.29 745.405 204.095 748.97 Q205.924 752.512 209.535 752.512 Q213.169 752.512 214.975 748.97 Q216.803 745.405 216.803 738.299 Q216.803 731.169 214.975 727.628 Q213.169 724.063 209.535 724.063 M209.535 720.359 Q215.345 720.359 218.401 724.966 Q221.479 729.549 221.479 738.299 Q221.479 747.026 218.401 751.632 Q215.345 756.215 209.535 756.215 Q203.725 756.215 200.646 751.632 Q197.591 747.026 197.591 738.299 Q197.591 729.549 200.646 724.966 Q203.725 720.359 209.535 720.359 Z" fill="#000000" fill-rule="nonzero" fill-opacity="1" /><path clip-path="url(#clip750)" d="M229.743 720.984 L248.1 720.984 L248.1 724.919 L234.026 724.919 L234.026 733.391 Q235.044 733.044 236.063 732.882 Q237.081 732.697 238.1 732.697 Q243.887 732.697 247.266 735.868 Q250.646 739.04 250.646 744.456 Q250.646 750.035 247.174 753.137 Q243.701 756.215 237.382 756.215 Q235.206 756.215 232.938 755.845 Q230.692 755.475 228.285 754.734 L228.285 750.035 Q230.368 751.169 232.59 751.725 Q234.813 752.28 237.289 752.28 Q241.294 752.28 243.632 750.174 Q245.97 748.067 245.97 744.456 Q245.97 740.845 243.632 738.739 Q241.294 736.632 237.289 736.632 Q235.415 736.632 233.54 737.049 Q231.688 737.465 229.743 738.345 L229.743 720.984 Z" fill="#000000" fill-rule="nonzero" fill-opacity="1" /><path clip-path="url(#clip750)" d="M163.308 444.273 Q159.697 444.273 157.869 447.838 Q156.063 451.379 156.063 458.509 Q156.063 465.615 157.869 469.18 Q159.697 472.722 163.308 472.722 Q166.943 472.722 168.748 469.18 Q170.577 465.615 170.577 458.509 Q170.577 451.379 168.748 447.838 Q166.943 444.273 163.308 444.273 M163.308 440.569 Q169.119 440.569 172.174 445.176 Q175.253 449.759 175.253 458.509 Q175.253 467.236 172.174 471.842 Q169.119 476.425 163.308 476.425 Q157.498 476.425 154.42 471.842 Q151.364 467.236 151.364 458.509 Q151.364 449.759 154.42 445.176 Q157.498 440.569 163.308 440.569 Z" fill="#000000" fill-rule="nonzero" fill-opacity="1" /><path clip-path="url(#clip750)" d="M183.47 469.875 L188.355 469.875 L188.355 475.754 L183.47 475.754 L183.47 469.875 Z" fill="#000000" fill-rule="nonzero" fill-opacity="1" /><path clip-path="url(#clip750)" d="M208.54 444.273 Q204.929 444.273 203.1 447.838 Q201.294 451.379 201.294 458.509 Q201.294 465.615 203.1 469.18 Q204.929 472.722 208.54 472.722 Q212.174 472.722 213.979 469.18 Q215.808 465.615 215.808 458.509 Q215.808 451.379 213.979 447.838 Q212.174 444.273 208.54 444.273 M208.54 440.569 Q214.35 440.569 217.405 445.176 Q220.484 449.759 220.484 458.509 Q220.484 467.236 217.405 471.842 Q214.35 476.425 208.54 476.425 Q202.729 476.425 199.651 471.842 Q196.595 467.236 196.595 458.509 Q196.595 449.759 199.651 445.176 Q202.729 440.569 208.54 440.569 Z" fill="#000000" fill-rule="nonzero" fill-opacity="1" /><path clip-path="url(#clip750)" d="M238.702 444.273 Q235.09 444.273 233.262 447.838 Q231.456 451.379 231.456 458.509 Q231.456 465.615 233.262 469.18 Q235.09 472.722 238.702 472.722 Q242.336 472.722 244.141 469.18 Q245.97 465.615 245.97 458.509 Q245.97 451.379 244.141 447.838 Q242.336 444.273 238.702 444.273 M238.702 440.569 Q244.512 440.569 247.567 445.176 Q250.646 449.759 250.646 458.509 Q250.646 467.236 247.567 471.842 Q244.512 476.425 238.702 476.425 Q232.891 476.425 229.813 471.842 Q226.757 467.236 226.757 458.509 Q226.757 449.759 229.813 445.176 Q232.891 440.569 238.702 440.569 Z" fill="#000000" fill-rule="nonzero" fill-opacity="1" /><path clip-path="url(#clip750)" d="M164.304 164.483 Q160.693 164.483 158.864 168.048 Q157.058 171.589 157.058 178.719 Q157.058 185.825 158.864 189.39 Q160.693 192.932 164.304 192.932 Q167.938 192.932 169.744 189.39 Q171.572 185.825 171.572 178.719 Q171.572 171.589 169.744 168.048 Q167.938 164.483 164.304 164.483 M164.304 160.779 Q170.114 160.779 173.169 165.386 Q176.248 169.969 176.248 178.719 Q176.248 187.446 173.169 192.052 Q170.114 196.635 164.304 196.635 Q158.494 196.635 155.415 192.052 Q152.359 187.446 152.359 178.719 Q152.359 169.969 155.415 165.386 Q158.494 160.779 164.304 160.779 Z" fill="#000000" fill-rule="nonzero" fill-opacity="1" /><path clip-path="url(#clip750)" d="M184.466 190.085 L189.35 190.085 L189.35 195.964 L184.466 195.964 L184.466 190.085 Z" fill="#000000" fill-rule="nonzero" fill-opacity="1" /><path clip-path="url(#clip750)" d="M209.535 164.483 Q205.924 164.483 204.095 168.048 Q202.29 171.589 202.29 178.719 Q202.29 185.825 204.095 189.39 Q205.924 192.932 209.535 192.932 Q213.169 192.932 214.975 189.39 Q216.803 185.825 216.803 178.719 Q216.803 171.589 214.975 168.048 Q213.169 164.483 209.535 164.483 M209.535 160.779 Q215.345 160.779 218.401 165.386 Q221.479 169.969 221.479 178.719 Q221.479 187.446 218.401 192.052 Q215.345 196.635 209.535 196.635 Q203.725 196.635 200.646 192.052 Q197.591 187.446 197.591 178.719 Q197.591 169.969 200.646 165.386 Q203.725 160.779 209.535 160.779 Z" fill="#000000" fill-rule="nonzero" fill-opacity="1" /><path clip-path="url(#clip750)" d="M229.743 161.404 L248.1 161.404 L248.1 165.339 L234.026 165.339 L234.026 173.812 Q235.044 173.464 236.063 173.302 Q237.081 173.117 238.1 173.117 Q243.887 173.117 247.266 176.288 Q250.646 179.46 250.646 184.876 Q250.646 190.455 247.174 193.557 Q243.701 196.635 237.382 196.635 Q235.206 196.635 232.938 196.265 Q230.692 195.895 228.285 195.154 L228.285 190.455 Q230.368 191.589 232.59 192.145 Q234.813 192.7 237.289 192.7 Q241.294 192.7 243.632 190.594 Q245.97 188.487 245.97 184.876 Q245.97 181.265 243.632 179.159 Q241.294 177.052 237.289 177.052 Q235.415 177.052 233.54 177.469 Q231.688 177.886 229.743 178.765 L229.743 161.404 Z" fill="#000000" fill-rule="nonzero" fill-opacity="1" /><path clip-path="url(#clip750)" d="M23.7444 781.381 L30.5239 781.381 Q27.5002 784.628 26.0043 788.32 Q24.5083 791.98 24.5083 796.118 Q24.5083 804.266 29.5054 808.595 Q34.4707 812.924 43.8919 812.924 Q53.2813 812.924 58.2784 808.595 Q63.2436 804.266 63.2436 796.118 Q63.2436 791.98 61.7477 788.32 Q60.2518 784.628 57.2281 781.381 L63.9439 781.381 Q66.2355 784.755 67.3814 788.543 Q68.5272 792.299 68.5272 796.5 Q68.5272 807.29 61.9387 813.496 Q55.3183 819.703 43.8919 819.703 Q32.4336 819.703 25.8451 813.496 Q19.2248 807.29 19.2248 796.5 Q19.2248 792.235 20.3706 788.479 Q21.4846 784.692 23.7444 781.381 Z" fill="#000000" fill-rule="nonzero" fill-opacity="1" /><path clip-path="url(#clip750)" d="M36.0621 757.892 Q36.0621 762.603 39.7542 765.34 Q43.4145 768.077 49.812 768.077 Q56.2095 768.077 59.9017 765.372 Q63.5619 762.634 63.5619 757.892 Q63.5619 753.213 59.8698 750.476 Q56.1777 747.739 49.812 747.739 Q43.4781 747.739 39.786 750.476 Q36.0621 753.213 36.0621 757.892 M31.0968 757.892 Q31.0968 750.253 36.0621 745.893 Q41.0273 741.532 49.812 741.532 Q58.5649 741.532 63.5619 745.893 Q68.5272 750.253 68.5272 757.892 Q68.5272 765.563 63.5619 769.923 Q58.5649 774.252 49.812 774.252 Q41.0273 774.252 36.0621 769.923 Q31.0968 765.563 31.0968 757.892 Z" fill="#000000" fill-rule="nonzero" fill-opacity="1" /><path clip-path="url(#clip750)" d="M48.3161 701.333 L51.1806 701.333 L51.1806 728.26 Q57.2281 727.878 60.4109 724.631 Q63.5619 721.353 63.5619 715.528 Q63.5619 712.154 62.7344 709.003 Q61.9069 705.821 60.2518 702.701 L65.7899 702.701 Q67.1267 705.852 67.827 709.163 Q68.5272 712.473 68.5272 715.878 Q68.5272 724.408 63.5619 729.405 Q58.5967 734.371 50.1303 734.371 Q41.3774 734.371 36.2531 729.66 Q31.0968 724.918 31.0968 716.897 Q31.0968 709.704 35.7438 705.534 Q40.3589 701.333 48.3161 701.333 M46.5973 707.189 Q41.7912 707.253 38.9266 709.895 Q36.0621 712.505 36.0621 716.833 Q36.0621 721.735 38.8312 724.695 Q41.6002 727.623 46.6292 728.069 L46.5973 707.189 Z" fill="#000000" fill-rule="nonzero" fill-opacity="1" /><path clip-path="url(#clip750)" d="M18.079 673.674 L22.9487 673.674 L22.9487 679.276 Q22.9487 682.427 24.2219 683.668 Q25.495 684.877 28.8052 684.877 L31.9562 684.877 L31.9562 675.233 L36.5077 675.233 L36.5077 684.877 L67.6042 684.877 L67.6042 690.766 L36.5077 690.766 L36.5077 696.367 L31.9562 696.367 L31.9562 690.766 L29.4736 690.766 Q23.5216 690.766 20.8162 687.997 Q18.079 685.227 18.079 679.212 L18.079 673.674 Z" fill="#000000" fill-rule="nonzero" fill-opacity="1" /><path clip-path="url(#clip750)" d="M18.079 650.725 L22.9487 650.725 L22.9487 656.327 Q22.9487 659.478 24.2219 660.72 Q25.495 661.929 28.8052 661.929 L31.9562 661.929 L31.9562 652.285 L36.5077 652.285 L36.5077 661.929 L67.6042 661.929 L67.6042 667.817 L36.5077 667.817 L36.5077 673.419 L31.9562 673.419 L31.9562 667.817 L29.4736 667.817 Q23.5216 667.817 20.8162 665.048 Q18.079 662.279 18.079 656.264 L18.079 650.725 Z" fill="#000000" fill-rule="nonzero" fill-opacity="1" /><path clip-path="url(#clip750)" d="M31.9562 645.824 L31.9562 639.967 L67.6042 639.967 L67.6042 645.824 L31.9562 645.824 M18.079 645.824 L18.079 639.967 L25.495 639.967 L25.495 645.824 L18.079 645.824 Z" fill="#000000" fill-rule="nonzero" fill-opacity="1" /><path clip-path="url(#clip750)" d="M33.3248 602.06 L38.7993 602.06 Q37.4307 604.542 36.7623 607.057 Q36.0621 609.539 36.0621 612.086 Q36.0621 617.783 39.6905 620.934 Q43.2872 624.085 49.812 624.085 Q56.3369 624.085 59.9653 620.934 Q63.5619 617.783 63.5619 612.086 Q63.5619 609.539 62.8935 607.057 Q62.1933 604.542 60.8247 602.06 L66.2355 602.06 Q67.3814 604.51 67.9543 607.152 Q68.5272 609.762 68.5272 612.722 Q68.5272 620.775 63.4664 625.517 Q58.4057 630.26 49.812 630.26 Q41.091 630.26 36.0939 625.485 Q31.0968 620.679 31.0968 612.34 Q31.0968 609.635 31.6697 607.057 Q32.2108 604.478 33.3248 602.06 Z" fill="#000000" fill-rule="nonzero" fill-opacity="1" /><path clip-path="url(#clip750)" d="M31.9562 591.874 L31.9562 586.018 L67.6042 586.018 L67.6042 591.874 L31.9562 591.874 M18.079 591.874 L18.079 586.018 L25.495 586.018 L25.495 591.874 L18.079 591.874 Z" fill="#000000" fill-rule="nonzero" fill-opacity="1" /><path clip-path="url(#clip750)" d="M48.3161 543.272 L51.1806 543.272 L51.1806 570.199 Q57.2281 569.817 60.4109 566.571 Q63.5619 563.292 63.5619 557.468 Q63.5619 554.094 62.7344 550.943 Q61.9069 547.76 60.2518 544.641 L65.7899 544.641 Q67.1267 547.792 67.827 551.102 Q68.5272 554.412 68.5272 557.818 Q68.5272 566.348 63.5619 571.345 Q58.5967 576.31 50.1303 576.31 Q41.3774 576.31 36.2531 571.6 Q31.0968 566.857 31.0968 558.836 Q31.0968 551.643 35.7438 547.474 Q40.3589 543.272 48.3161 543.272 M46.5973 549.129 Q41.7912 549.192 38.9266 551.834 Q36.0621 554.444 36.0621 558.773 Q36.0621 563.674 38.8312 566.634 Q41.6002 569.563 46.6292 570.008 L46.5973 549.129 Z" fill="#000000" fill-rule="nonzero" fill-opacity="1" /><path clip-path="url(#clip750)" d="M46.0881 504.028 L67.6042 504.028 L67.6042 509.884 L46.279 509.884 Q41.2183 509.884 38.7038 511.857 Q36.1894 513.831 36.1894 517.778 Q36.1894 522.52 39.2131 525.257 Q42.2368 527.995 47.4567 527.995 L67.6042 527.995 L67.6042 533.883 L31.9562 533.883 L31.9562 527.995 L37.4944 527.995 Q34.2797 525.894 32.6883 523.061 Q31.0968 520.197 31.0968 516.473 Q31.0968 510.33 34.9163 507.179 Q38.7038 504.028 46.0881 504.028 Z" fill="#000000" fill-rule="nonzero" fill-opacity="1" /><path clip-path="url(#clip750)" d="M21.8347 486.554 L31.9562 486.554 L31.9562 474.491 L36.5077 474.491 L36.5077 486.554 L55.8594 486.554 Q60.2199 486.554 61.4613 485.376 Q62.7026 484.167 62.7026 480.506 L62.7026 474.491 L67.6042 474.491 L67.6042 480.506 Q67.6042 487.286 65.0897 489.864 Q62.5434 492.442 55.8594 492.442 L36.5077 492.442 L36.5077 496.739 L31.9562 496.739 L31.9562 492.442 L21.8347 492.442 L21.8347 486.554 Z" fill="#000000" fill-rule="nonzero" fill-opacity="1" /><path clip-path="url(#clip750)" d="M809.587 72.576 L786.497 12.096 L795.045 12.096 L814.205 63.0159 L833.407 12.096 L841.914 12.096 L818.864 72.576 L809.587 72.576 Z" fill="#000000" fill-rule="nonzero" fill-opacity="1" /><path clip-path="url(#clip750)" d="M864.599 49.7694 Q855.565 49.7694 852.081 51.8354 Q848.598 53.9013 848.598 58.8839 Q848.598 62.8538 851.19 65.2034 Q853.823 67.5124 858.32 67.5124 Q864.518 67.5124 868.245 63.1374 Q872.012 58.7219 872.012 51.4303 L872.012 49.7694 L864.599 49.7694 M879.466 46.6907 L879.466 72.576 L872.012 72.576 L872.012 65.6895 Q869.46 69.8214 865.652 71.8063 Q861.844 73.7508 856.335 73.7508 Q849.367 73.7508 845.235 69.8619 Q841.144 65.9325 841.144 59.3701 Q841.144 51.7138 846.248 47.825 Q851.393 43.9361 861.561 43.9361 L872.012 43.9361 L872.012 43.2069 Q872.012 38.0623 868.609 35.2672 Q865.247 32.4315 859.13 32.4315 Q855.241 32.4315 851.555 33.3632 Q847.868 34.295 844.466 36.1584 L844.466 29.2718 Q848.557 27.692 852.405 26.9223 Q856.254 26.1121 859.9 26.1121 Q869.743 26.1121 874.604 31.2163 Q879.466 36.3204 879.466 46.6907 Z" fill="#000000" fill-rule="nonzero" fill-opacity="1" /><path clip-path="url(#clip750)" d="M894.818 9.54393 L902.272 9.54393 L902.272 72.576 L894.818 72.576 L894.818 9.54393 Z" fill="#000000" fill-rule="nonzero" fill-opacity="1" /><path clip-path="url(#clip750)" d="M917.098 54.671 L917.098 27.2059 L924.552 27.2059 L924.552 54.3874 Q924.552 60.8284 927.064 64.0691 Q929.575 67.2693 934.598 67.2693 Q940.634 67.2693 944.118 63.421 Q947.642 59.5726 947.642 52.9291 L947.642 27.2059 L955.096 27.2059 L955.096 72.576 L947.642 72.576 L947.642 65.6084 Q944.928 69.7404 941.323 71.7658 Q937.758 73.7508 933.018 73.7508 Q925.2 73.7508 921.149 68.8897 Q917.098 64.0286 917.098 54.671 M935.854 26.1121 L935.854 26.1121 Z" fill="#000000" fill-rule="nonzero" fill-opacity="1" /><path clip-path="url(#clip750)" d="M1009.26 48.0275 L1009.26 51.6733 L974.986 51.6733 Q975.472 59.3701 979.604 63.421 Q983.776 67.4314 991.189 67.4314 Q995.483 67.4314 999.494 66.3781 Q1003.54 65.3249 1007.51 63.2184 L1007.51 70.267 Q1003.5 71.9684 999.291 72.8596 Q995.078 73.7508 990.744 73.7508 Q979.887 73.7508 973.528 67.4314 Q967.208 61.1119 967.208 50.3365 Q967.208 39.1965 973.203 32.6746 Q979.239 26.1121 989.448 26.1121 Q998.603 26.1121 1003.91 32.0264 Q1009.26 37.9003 1009.26 48.0275 M1001.8 45.84 Q1001.72 39.7232 998.36 36.0774 Q995.038 32.4315 989.529 32.4315 Q983.29 32.4315 979.523 35.9558 Q975.796 39.4801 975.229 45.8805 L1001.8 45.84 Z" fill="#000000" fill-rule="nonzero" fill-opacity="1" /><path clip-path="url(#clip750)" d="M1065.44 32.4315 Q1059.45 32.4315 1055.96 37.1306 Q1052.48 41.7891 1052.48 49.9314 Q1052.48 58.0738 1055.92 62.7728 Q1059.41 67.4314 1065.44 67.4314 Q1071.4 67.4314 1074.88 62.7323 Q1078.36 58.0333 1078.36 49.9314 Q1078.36 41.8701 1074.88 37.1711 Q1071.4 32.4315 1065.44 32.4315 M1065.44 26.1121 Q1075.16 26.1121 1080.71 32.4315 Q1086.26 38.7509 1086.26 49.9314 Q1086.26 61.0714 1080.71 67.4314 Q1075.16 73.7508 1065.44 73.7508 Q1055.68 73.7508 1050.13 67.4314 Q1044.62 61.0714 1044.62 49.9314 Q1044.62 38.7509 1050.13 32.4315 Q1055.68 26.1121 1065.44 26.1121 Z" fill="#000000" fill-rule="nonzero" fill-opacity="1" /><path clip-path="url(#clip750)" d="M1121.59 9.54393 L1121.59 15.7418 L1114.46 15.7418 Q1110.45 15.7418 1108.87 17.3622 Q1107.33 18.9825 1107.33 23.1955 L1107.33 27.2059 L1119.6 27.2059 L1119.6 32.9987 L1107.33 32.9987 L1107.33 72.576 L1099.83 72.576 L1099.83 32.9987 L1092.71 32.9987 L1092.71 27.2059 L1099.83 27.2059 L1099.83 24.0462 Q1099.83 16.471 1103.36 13.0277 Q1106.88 9.54393 1114.54 9.54393 L1121.59 9.54393 Z" fill="#000000" fill-rule="nonzero" fill-opacity="1" /><path clip-path="url(#clip750)" d="M1161.57 14.324 L1161.57 27.2059 L1176.92 27.2059 L1176.92 32.9987 L1161.57 32.9987 L1161.57 57.6282 Q1161.57 63.1779 1163.07 64.7578 Q1164.61 66.3376 1169.27 66.3376 L1176.92 66.3376 L1176.92 72.576 L1169.27 72.576 Q1160.64 72.576 1157.36 69.3758 Q1154.08 66.1351 1154.08 57.6282 L1154.08 32.9987 L1148.61 32.9987 L1148.61 27.2059 L1154.08 27.2059 L1154.08 14.324 L1161.57 14.324 Z" fill="#000000" fill-rule="nonzero" fill-opacity="1" /><path clip-path="url(#clip750)" d="M1213.02 34.1734 Q1211.76 33.4443 1210.26 33.1202 Q1208.8 32.7556 1207.02 32.7556 Q1200.7 32.7556 1197.3 36.8875 Q1193.94 40.9789 1193.94 48.6757 L1193.94 72.576 L1186.44 72.576 L1186.44 27.2059 L1193.94 27.2059 L1193.94 34.2544 Q1196.29 30.1225 1200.05 28.1376 Q1203.82 26.1121 1209.21 26.1121 Q1209.98 26.1121 1210.91 26.2337 Q1211.84 26.3147 1212.98 26.5172 L1213.02 34.1734 Z" fill="#000000" fill-rule="nonzero" fill-opacity="1" /><path clip-path="url(#clip750)" d="M1257.82 48.0275 L1257.82 51.6733 L1223.55 51.6733 Q1224.04 59.3701 1228.17 63.421 Q1232.34 67.4314 1239.75 67.4314 Q1244.05 67.4314 1248.06 66.3781 Q1252.11 65.3249 1256.08 63.2184 L1256.08 70.267 Q1252.07 71.9684 1247.85 72.8596 Q1243.64 73.7508 1239.31 73.7508 Q1228.45 73.7508 1222.09 67.4314 Q1215.77 61.1119 1215.77 50.3365 Q1215.77 39.1965 1221.77 32.6746 Q1227.8 26.1121 1238.01 26.1121 Q1247.17 26.1121 1252.47 32.0264 Q1257.82 37.9003 1257.82 48.0275 M1250.37 45.84 Q1250.29 39.7232 1246.92 36.0774 Q1243.6 32.4315 1238.09 32.4315 Q1231.85 32.4315 1228.09 35.9558 Q1224.36 39.4801 1223.79 45.8805 L1250.37 45.84 Z" fill="#000000" fill-rule="nonzero" fill-opacity="1" /><path clip-path="url(#clip750)" d="M1290.67 49.7694 Q1281.64 49.7694 1278.16 51.8354 Q1274.67 53.9013 1274.67 58.8839 Q1274.67 62.8538 1277.26 65.2034 Q1279.9 67.5124 1284.39 67.5124 Q1290.59 67.5124 1294.32 63.1374 Q1298.09 58.7219 1298.09 51.4303 L1298.09 49.7694 L1290.67 49.7694 M1305.54 46.6907 L1305.54 72.576 L1298.09 72.576 L1298.09 65.6895 Q1295.53 69.8214 1291.73 71.8063 Q1287.92 73.7508 1282.41 73.7508 Q1275.44 73.7508 1271.31 69.8619 Q1267.22 65.9325 1267.22 59.3701 Q1267.22 51.7138 1272.32 47.825 Q1277.47 43.9361 1287.63 43.9361 L1298.09 43.9361 L1298.09 43.2069 Q1298.09 38.0623 1294.68 35.2672 Q1291.32 32.4315 1285.2 32.4315 Q1281.32 32.4315 1277.63 33.3632 Q1273.94 34.295 1270.54 36.1584 L1270.54 29.2718 Q1274.63 27.692 1278.48 26.9223 Q1282.33 26.1121 1285.97 26.1121 Q1295.82 26.1121 1300.68 31.2163 Q1305.54 36.3204 1305.54 46.6907 Z" fill="#000000" fill-rule="nonzero" fill-opacity="1" /><path clip-path="url(#clip750)" d="M1328.27 14.324 L1328.27 27.2059 L1343.62 27.2059 L1343.62 32.9987 L1328.27 32.9987 L1328.27 57.6282 Q1328.27 63.1779 1329.76 64.7578 Q1331.3 66.3376 1335.96 66.3376 L1343.62 66.3376 L1343.62 72.576 L1335.96 72.576 Q1327.33 72.576 1324.05 69.3758 Q1320.77 66.1351 1320.77 57.6282 L1320.77 32.9987 L1315.3 32.9987 L1315.3 27.2059 L1320.77 27.2059 L1320.77 14.324 L1328.27 14.324 Z" fill="#000000" fill-rule="nonzero" fill-opacity="1" /><path clip-path="url(#clip750)" d="M1388.75 35.9153 Q1391.54 30.8922 1395.43 28.5022 Q1399.32 26.1121 1404.58 26.1121 Q1411.67 26.1121 1415.52 31.0947 Q1419.37 36.0368 1419.37 45.1919 L1419.37 72.576 L1411.88 72.576 L1411.88 45.4349 Q1411.88 38.913 1409.57 35.7533 Q1407.26 32.5936 1402.52 32.5936 Q1396.73 32.5936 1393.36 36.4419 Q1390 40.2903 1390 46.9338 L1390 72.576 L1382.51 72.576 L1382.51 45.4349 Q1382.51 38.8725 1380.2 35.7533 Q1377.89 32.5936 1373.07 32.5936 Q1367.36 32.5936 1363.99 36.4824 Q1360.63 40.3308 1360.63 46.9338 L1360.63 72.576 L1353.14 72.576 L1353.14 27.2059 L1360.63 27.2059 L1360.63 34.2544 Q1363.18 30.082 1366.75 28.0971 Q1370.31 26.1121 1375.22 26.1121 Q1380.16 26.1121 1383.6 28.6237 Q1387.08 31.1352 1388.75 35.9153 Z" fill="#000000" fill-rule="nonzero" fill-opacity="1" /><path clip-path="url(#clip750)" d="M1473.04 48.0275 L1473.04 51.6733 L1438.77 51.6733 Q1439.26 59.3701 1443.39 63.421 Q1447.56 67.4314 1454.98 67.4314 Q1459.27 67.4314 1463.28 66.3781 Q1467.33 65.3249 1471.3 63.2184 L1471.3 70.267 Q1467.29 71.9684 1463.08 72.8596 Q1458.87 73.7508 1454.53 73.7508 Q1443.68 73.7508 1437.32 67.4314 Q1431 61.1119 1431 50.3365 Q1431 39.1965 1436.99 32.6746 Q1443.03 26.1121 1453.24 26.1121 Q1462.39 26.1121 1467.7 32.0264 Q1473.04 37.9003 1473.04 48.0275 M1465.59 45.84 Q1465.51 39.7232 1462.15 36.0774 Q1458.83 32.4315 1453.32 32.4315 Q1447.08 32.4315 1443.31 35.9558 Q1439.58 39.4801 1439.02 45.8805 L1465.59 45.84 Z" fill="#000000" fill-rule="nonzero" fill-opacity="1" /><path clip-path="url(#clip750)" d="M1522.99 45.1919 L1522.99 72.576 L1515.54 72.576 L1515.54 45.4349 Q1515.54 38.994 1513.03 35.7938 Q1510.52 32.5936 1505.49 32.5936 Q1499.46 32.5936 1495.97 36.4419 Q1492.49 40.2903 1492.49 46.9338 L1492.49 72.576 L1484.99 72.576 L1484.99 27.2059 L1492.49 27.2059 L1492.49 34.2544 Q1495.16 30.163 1498.77 28.1376 Q1502.41 26.1121 1507.15 26.1121 Q1514.97 26.1121 1518.98 30.9732 Q1522.99 35.7938 1522.99 45.1919 Z" fill="#000000" fill-rule="nonzero" fill-opacity="1" /><path clip-path="url(#clip750)" d="M1545.23 14.324 L1545.23 27.2059 L1560.58 27.2059 L1560.58 32.9987 L1545.23 32.9987 L1545.23 57.6282 Q1545.23 63.1779 1546.73 64.7578 Q1548.27 66.3376 1552.93 66.3376 L1560.58 66.3376 L1560.58 72.576 L1552.93 72.576 Q1544.3 72.576 1541.02 69.3758 Q1537.74 66.1351 1537.74 57.6282 L1537.74 32.9987 L1532.27 32.9987 L1532.27 27.2059 L1537.74 27.2059 L1537.74 14.324 L1545.23 14.324 Z" fill="#000000" fill-rule="nonzero" fill-opacity="1" /><circle clip-path="url(#clip752)" cx="332.772" cy="422.06" r="14.4" fill="#009af9" fill-rule="evenodd" fill-opacity="1" stroke="#000000" stroke-opacity="1" stroke-width="2.688"/>
<polyline clip-path="url(#clip752)" style="stroke:#e26f46; stroke-linecap:round; stroke-linejoin:round; stroke-width:4; stroke-opacity:1; fill:none" points="332.772,693.602 332.772,150.518 "/>
<circle clip-path="url(#clip752)" cx="1173.54" cy="831.697" r="14.4" fill="#3da44d" fill-rule="evenodd" fill-opacity="1" stroke="#000000" stroke-opacity="1" stroke-width="2.688"/>
<polyline clip-path="url(#clip752)" style="stroke:#c271d2; stroke-linecap:round; stroke-linejoin:round; stroke-width:4; stroke-opacity:1; fill:none" points="1173.54,1143.68 1173.54,519.717 "/>
<circle clip-path="url(#clip752)" cx="2014.31" cy="579.534" r="14.4" fill="#ac8d18" fill-rule="evenodd" fill-opacity="1" stroke="#000000" stroke-opacity="1" stroke-width="2.688"/>
<polyline clip-path="url(#clip752)" style="stroke:#00a9ad; stroke-linecap:round; stroke-linejoin:round; stroke-width:4; stroke-opacity:1; fill:none" points="2014.31,904.32 2014.31,254.749 "/>
</svg>
